<?xml version="1.0" encoding="utf-8"?>
<!-- Generator: Adobe Illustrator 19.2.0, SVG Export Plug-In . SVG Version: 6.00 Build 0)  -->
<svg version="1.1" id="Capa_1" xmlns="http://www.w3.org/2000/svg" xmlns:xlink="http://www.w3.org/1999/xlink" x="0px" y="0px"
	 viewBox="0 0 200 200" style="enable-background:new 0 0 200 200;" xml:space="preserve">
<g>
	<path d="M185.7,118.4c0.4-0.7,0.9-1.2,1.6-1.6c0.7-0.3,1.4-0.5,2-0.5c0,0,0,0,0,0c0.7,0,1.4,0.2,2,0.5c0.7,0.4,1.2,0.9,1.6,1.6
		c0.4,0.7,0.5,1.4,0.5,2.1c0,0.7-0.2,1.4-0.5,2.1c-0.3,0.6-0.9,1.2-1.5,1.5c-0.7,0.4-1.4,0.5-2.1,0.5c0,0,0,0,0,0
		c-0.7,0-1.4-0.2-2.1-0.5c-0.7-0.4-1.2-0.9-1.5-1.5c-0.4-0.7-0.6-1.4-0.6-2.1C185.1,119.8,185.3,119.1,185.7,118.4L185.7,118.4
		L185.7,118.4L185.7,118.4L185.7,118.4z M186.8,124.8c0.8,0.5,1.6,0.7,2.5,0.7c0,0,0,0,0,0c0.9,0,1.7-0.2,2.5-0.7
		c0.8-0.4,1.4-1,1.8-1.8c0.5-0.8,0.7-1.6,0.7-2.5c0-0.9-0.2-1.7-0.7-2.5c-0.4-0.8-1.1-1.4-1.9-1.8c-0.8-0.4-1.6-0.7-2.4-0.7
		c0,0,0,0,0,0c-0.8,0-1.6,0.2-2.4,0.7c-0.8,0.4-1.4,1-1.9,1.8c-0.5,0.8-0.7,1.6-0.7,2.5c0,0.8,0.2,1.7,0.7,2.5
		C185.4,123.8,186,124.4,186.8,124.8L186.8,124.8L186.8,124.8L186.8,124.8L186.8,124.8z"/>
	<path d="M188,118.6h1l0,0c0.1,0,0.2,0,0.3,0c0.3,0,0.4,0.1,0.5,0.1c0.2,0.1,0.3,0.1,0.4,0.3c0.1,0.1,0.1,0.3,0.1,0.4
		c0,0.2-0.1,0.4-0.3,0.6c-0.1,0.1-0.4,0.2-0.8,0.2c-0.1,0-0.2,0-0.3,0l0,0H188V118.6L188,118.6L188,118.6L188,118.6z M188,121h0.5
		l0,0c0.3,0,0.5,0.1,0.7,0.2c0.1,0,0.1,0.1,0.1,0.1c0.2,0.2,0.5,0.6,0.8,1.2l0,0l0.5,0.9h1l-0.6-1.1l0,0c-0.3-0.5-0.6-0.9-0.8-1.1
		c-0.1-0.1-0.3-0.2-0.5-0.3c0.5,0,0.8-0.2,1.1-0.5c0.3-0.3,0.4-0.6,0.4-1c0-0.3-0.1-0.5-0.3-0.8c-0.2-0.3-0.4-0.4-0.7-0.5
		c-0.2-0.1-0.6-0.1-1-0.1c-0.1,0-0.2,0-0.3,0l0,0h-1.9v5.4h0.9V121L188,121L188,121L188,121z"/>
	<polygon points="58.6,119.2 66.4,119.2 58.6,106.3 52,95.3 24.1,112.1 28.4,119.2 58.6,119.2 58.6,119.2 58.6,119.2 	"/>
	<polygon points="130.9,119.2 145.3,119.2 168.9,119.2 145.3,79.8 119.1,36.3 108.4,42.8 91.2,53.1 108.4,81.6 130.9,119.2 
		130.9,119.2 130.9,119.2 	"/>
	<path d="M117.7,148.4c-0.8,4.3-4.7,7.6-9.2,7.6c0,0-0.1,0-0.1,0c-5.2-0.1-9.3-4.3-9.3-9.4s4.2-9.4,9.3-9.4c0,0,0.1,0,0.1,0
		c4.6,0,8.4,3.3,9.2,7.6l0,0V148.4L117.7,148.4L117.7,148.4L117.7,148.4z M117.7,132.2c-2.7-1.7-5.8-2.7-9.2-2.7c0,0-0.1,0-0.1,0
		c-9.4,0.1-17,7.7-17,17.1c0,9.4,7.6,17.1,17,17.1c0,0,0.1,0,0.1,0c3.4,0,6.5-1,9.2-2.7l0,0v1.8h7.9v-16.2v-27.4h-7.9V132.2
		L117.7,132.2L117.7,132.2L117.7,132.2z"/>
	<path d="M154.6,148.4c-0.8,4.3-4.7,7.6-9.2,7.6c0,0-0.1,0-0.1,0c-5.2-0.1-9.3-4.3-9.3-9.4s4.2-9.4,9.3-9.4c0,0,0.1,0,0.1,0
		c4.6,0,8.4,3.3,9.2,7.6l0,0V148.4L154.6,148.4L154.6,148.4L154.6,148.4z M154.6,132.2c-2.7-1.7-5.8-2.7-9.2-2.7c0,0-0.1,0-0.1,0
		c-9.4,0.1-17,7.7-17,17.1c0,9.4,7.6,17.1,17,17.1c0,0,0.1,0,0.1,0c3.4,0,6.6-1,9.2-2.7l0,0v1.8h7.9v-16.2v-16.2h-7.9V132.2
		L154.6,132.2L154.6,132.2L154.6,132.2z"/>
	<path d="M190.4,144.5c-0.3-0.1-0.7-0.3-1.2-0.5c-1.8-0.6-4.6-1.4-8.6-2.2c-3.5-0.8-5.2-1.8-5.2-3.1c0-0.9,0.3-1.6,0.9-2.1
		c0.8-0.7,2.2-1,4.3-1c2.1,0,3.6,0.5,4.5,1.4c0.5,0.5,1,1.5,1.2,2.9l0,0h2.9h5.5l0,0c0-4.1-1.7-7-5-8.8c-0.2-0.1-0.3-0.2-0.5-0.3
		c-2.3-1.1-5.3-1.6-9.1-1.6c-4.6,0-8,1.2-10.3,3.7c-1.8,2-2.7,4.3-2.7,7.2c0,3.5,1.7,6.1,5.2,7.7c1.3,0.6,4.6,1.5,9.7,2.6
		c3.4,0.7,5.2,1.8,5.2,3.2c0,0.8-0.3,1.5-1.1,2.1c-1,0.8-2.4,1.2-4.3,1.2c-2.6,0-4.4-0.4-5.4-1.3c-1.1-0.8-1.6-2-1.6-3.5l0,0H166
		l0,0c0,4,1.7,6.9,5,8.9c2.7,1.5,6.2,2.3,10.5,2.3c2.9,0,5.5-0.5,7.7-1.4c0.5-0.2,0.9-0.4,1.3-0.6c3.4-1.9,5.2-4.9,5.2-9.1
		C195.7,148.7,194,146.1,190.4,144.5L190.4,144.5L190.4,144.5L190.4,144.5L190.4,144.5z"/>
	<path d="M30.6,148.4c-0.8,4.3-4.7,7.6-9.2,7.6c0,0-0.1,0-0.1,0c-5.1-0.1-9.3-4.3-9.3-9.4s4.2-9.4,9.3-9.4c0,0,0.1,0,0.1,0
		c4.6,0,8.4,3.3,9.2,7.6l0,0V148.4L30.6,148.4L30.6,148.4L30.6,148.4z M30.6,132.2c-2.7-1.7-5.8-2.7-9.2-2.7c0,0-0.1,0-0.1,0
		c-9.4,0.1-17,7.7-17,17.1c0,9.4,7.6,17.1,17,17.1c0,0,0.1,0,0.1,0c3.4,0,6.6-1,9.2-2.7l0,0v1.8h7.9v-16.2v-16.2h-7.9V132.2
		L30.6,132.2L30.6,132.2L30.6,132.2z"/>
	<polygon points="79.7,126.9 88.2,126.9 88.2,119.4 79.7,119.4 79.7,126.9 79.7,126.9 79.7,126.9 	"/>
	<polygon points="79.7,162.7 88.2,162.7 88.2,129.5 79.7,129.5 79.7,162.7 79.7,162.7 79.7,162.7 	"/>
	<path d="M67.9,148.4c-0.8,4.3-4.7,7.6-9.2,7.6c0,0-0.1,0-0.1,0c-5.2-0.1-9.3-4.3-9.3-9.4s4.2-9.4,9.3-9.4c0,0,0.1,0,0.1,0
		c4.6,0,8.4,3.3,9.2,7.6l0,0V148.4L67.9,148.4L67.9,148.4L67.9,148.4z M67.9,132.2c-2.7-1.7-5.8-2.7-9.2-2.7c0,0-0.1,0-0.1,0
		c-9.4,0.1-17,7.7-17,17.1c0,9.4,7.6,17.1,17,17.1c0,0,0.1,0,0.1,0c3.4,0,6.6-1,9.2-2.7l0,0v1.8h7.9v-16.2v-27.4h-7.9V132.2
		L67.9,132.2L67.9,132.2L67.9,132.2z"/>
	<polygon points="117.6,119.2 108.4,103.7 85.6,65.8 58.6,82.1 57.7,82.6 58.6,84.1 79.7,119.2 108.4,119.2 117.6,119.2 
		117.6,119.2 117.6,119.2 	"/>
</g>
</svg>
