<?xml version="1.0" encoding="utf-8"?>
<!-- Generator: Adobe Illustrator 19.2.0, SVG Export Plug-In . SVG Version: 6.00 Build 0)  -->
<svg version="1.1" id="Capa_1" xmlns="http://www.w3.org/2000/svg" xmlns:xlink="http://www.w3.org/1999/xlink" x="0px" y="0px"
	 viewBox="0 0 200 200" style="enable-background:new 0 0 200 200;" xml:space="preserve">
<style type="text/css">
	.st0{fill-rule:evenodd;clip-rule:evenodd;}
	.st1{fill-rule:evenodd;clip-rule:evenodd;fill:#FFFFFF;}
</style>
<g>
	<g>
		<path d="M100,179.5c-43.8,0-79.5-35.7-79.5-79.5c0-43.8,35.7-79.5,79.5-79.5c43.8,0,79.5,35.7,79.5,79.5
			C179.5,143.8,143.8,179.5,100,179.5z M100,27c-40.3,0-73,32.8-73,73s32.8,73,73,73s73-32.8,73-73S140.3,27,100,27z"/>
	</g>
	<path class="st0" d="M75.2,66.8l0,17.7l22.7,0.2l0.2-27.3l-12.3-0.3C78.9,57.3,75.3,61,75.2,66.8 M101.8,89.3v32.9l12,0
		c20.6,0,20.1-33.6-0.4-33.1L101.8,89.3z M75.3,88.4v22.5l0.1,11.4l22.5,0.2l0.2-33.5L75.3,88.4z M101.8,57.4v27.3l11.3,0
		c17.8,0,16.7-27.9-0.9-27.5L101.8,57.4z"/>
	<path class="st0" d="M72.9,47.6l56,0.1c5,0,9.4,4.2,9.4,9.2v63.5c0,5-4.4,9.2-9.4,9.2l-56-0.1c-5,0-9.4-4.2-9.4-9.2V56.8
		C63.5,51.9,67.9,47.6,72.9,47.6 M72.5,42.8l56.8,0.1c7.3,0,13.3,6,13.3,13.4v65c0,7.3-6,13.3-13.3,13.3l-56.8-0.1
		c-7.3,0-13.3-6-13.3-13.4v-65C59.1,48.8,65.1,42.8,72.5,42.8z"/>
	<polygon class="st1" points="71.9,96.4 118.3,62.6 120.6,65.4 116.5,68.3 118.1,69.9 125,64.7 126.1,69.5 108.7,84.3 111.9,89.8 
		84.9,108.1 82.6,105.6 93.2,98.5 91.5,95.8 75.3,106.8 74.4,103.1 81.5,97.6 80.1,95.1 74.8,98.7 	"/>
	<path class="st1" d="M77,105.6l-1.7,1.1l-0.5-1.8v-2.2L77,101C77,102.6,77,104.1,77,105.6 M74.8,94.3l2.2-1.6c0,1.5,0,3,0,4.5
		l-2.2,1.5V94.3z"/>
	<path class="st1" d="M75.8,106.4l-0.5,0.4l-0.5-1.8v-2.2l0.9-0.7C75.8,103.5,75.8,104.9,75.8,106.4 M74.8,94.3l0.9-0.6
		c0,1.5,0,3,0,4.5l-0.9,0.6V94.3z"/>
	<path class="st1" d="M124.3,65.1l0.3-0.2c0.6,1.4,1,2.9,1.2,4.4l-1.3,1.2C124.6,68.9,124.5,67.1,124.3,65.1"/>
	<path class="st0" d="M108.4,142.6c2.2,0,5.5,0,6.6,0v1.5l-6.3,0v2.2l6.3,0v1.4l-6.3,0v2.1l6.3,0v1.5l-8.8,0v-6.5
		C106.2,143.6,106.9,142.6,108.4,142.6"/>
	<path class="st0" d="M119,144.1v2.2l2.9,0c0.5,0,1.5-0.4,1.5-1.1c0-1-1.5-1.2-1.5-1.2L119,144.1z M118.4,142.7l0.5,0l3.2,0
		c1.9,0.1,3.5,1.1,3.5,2.4c0,1-0.6,1.8-1.6,2.3l1.7,4.1l-2.5,0l-1.5-3.7l-2.7,0v3.6l-2.5,0v-6.6
		C116.4,143.2,117.5,142.7,118.4,142.7z"/>
	<polygon class="st0" points="86.5,144.2 86.5,142.6 105,142.7 105,144.2 101.3,144.2 101.3,151.3 98.7,151.3 98.7,144.2 
		92.9,144.2 92.9,151.3 90.4,151.3 90.4,144.2 	"/>
	<path class="st0" d="M67.8,146.2c-0.1,0-0.1,0-0.2,0l-3.3,0V144l3.1,0c0,0,1.5,0,1.5,1.2C68.9,145.8,68.3,146.1,67.8,146.2
		 M67.8,147.7c-0.1,0-0.1,0-0.2,0l-3.3,0v2.2l3.1,0c0,0,1.5,0,1.5-1.2C68.9,148.1,68.3,147.7,67.8,147.7z M67.8,142.6L67.8,142.6
		c1.9,0,3.3,0.9,3.3,2.4c0,0.8-0.3,1.5-0.9,1.9c0.6,0.3,1,1.2,1,1.9c0,1.6-1.6,2.4-3.4,2.4l-3.3,0v0l-2.5,0V149v-4.2
		c-0.1-1.7,0.9-2.3,2.5-2.3L67.8,142.6z"/>
	<path class="st0" d="M79.4,143.9c2.7,0,4.8,1.3,4.8,3c0,1.7-2.2,3-4.8,3c-2.7,0-4.8-1.3-4.8-3C74.6,145.3,76.8,143.9,79.4,143.9
		 M79.4,142.6c4,0,7.2,2,7.2,4.4c0,2.4-3.2,4.4-7.2,4.4c-4,0-7.2-2-7.2-4.4C72.2,144.5,75.4,142.6,79.4,142.6z"/>
	<path class="st0" d="M133.2,143.9c2.7,0,4.8,1.3,4.8,3c0,1.7-2.2,3-4.8,3c-2.7,0-4.8-1.3-4.8-3
		C128.4,145.3,130.6,143.9,133.2,143.9 M133.2,142.6c4,0,7.2,2,7.2,4.4c0,2.4-3.2,4.4-7.2,4.4c-4,0-7.2-2-7.2-4.4
		C126,144.5,129.3,142.6,133.2,142.6z"/>
	<path class="st0" d="M133.3,146.3c0.4,0,0.6,0,0.7,0.1c0.1,0.1,0.3,0.2,0.3,0.3c0,0.1-0.1,0.2-0.2,0.3c-0.1,0.1-0.2,0.1-0.4,0.1
		l0.5,0.6l-0.5,0l-0.4-0.6l-0.4,0v0.6l-0.5,0v-1.4L133.3,146.3z M133.3,146.4l-0.3,0v0.5l0.3,0c0.2,0,0.3,0,0.4-0.1
		c0.1,0,0.2-0.1,0.2-0.2c0-0.1-0.1-0.2-0.2-0.2C133.6,146.5,133.5,146.4,133.3,146.4z M129,146.1l3.3,0l1-1.9l1,1.9l3.3,0l-2.7,1.1
		l1.1,1.9l-2.6-1.2l-2.6,1.2l1-1.9L129,146.1z"/>
</g>
</svg>
