<?xml version="1.0" encoding="utf-8"?>
<!-- Generator: Adobe Illustrator 19.2.0, SVG Export Plug-In . SVG Version: 6.00 Build 0)  -->
<svg version="1.1" id="Capa_1" xmlns="http://www.w3.org/2000/svg" xmlns:xlink="http://www.w3.org/1999/xlink" x="0px" y="0px"
	 viewBox="0 0 200 200" style="enable-background:new 0 0 200 200;" xml:space="preserve">
<style type="text/css">
	.st0{fill-rule:evenodd;clip-rule:evenodd;fill:#000005;}
</style>
<path class="st0" d="M43.5,70c-1.5,5.8,1.9,6.9,8.3,11l-0.6,4.6l-12.5-1c2.3,3.9,5.4,8.1,4.3,11.4c-9.4,0.6-13.1-4-19.8-10.1
	C24,97,38.9,108.4,42,108.3l5.5,10.1c5.6,2.1,0.8-3.4,7-4.2c10.2-3,11.5-10.2,16.5-19.3c12.9-3.9,9.7,9.1,8.5,18.3
	c-0.5,1.5-0.3,1.6-1.7,2.3c-1.5,0.7-2,2.2-2,4.2c0.1,3.2,8.3,2.8,12.5,0.2l-0.4-3l4.7-24c9.3,0.4,6.8,8.4,10.4,12.5
	c0.9,1,2.3,2,3.2,3c3.8,4.1-0.2,1.2,8.8,9.3c4.8-2.5,6.7-6.9,6-13.1c-3.5-1.2-9.5,0-8.7-5.9c0.8-5.9,11.7,2.1,23-3.4l9.6-5.6
	c3.3,1.8,2.7,3.7,4.1,6.5c1.8,3.7,4.2,2.9,5.9,5.3l-3.7,13.8c0.2,1.9-0.2,1.6,1.4,2.3c15.4,3.9,9.1-5.6,16-15
	c0.6-1.6,0.5-1.1-0.3-2.6c-7.4-9.5-3.6-6.9,3.2-30c2.3,9.7,2.7,18.1-0.4,24.2c7.8-3,6.5-22.3,0.1-34.4c-2.8-5.4-1.8-4.6-5.9-9.8
	c-12.9-16-24.1-6.8-31.1-6.4c-22.6,1.5-23.7-6.7-37.7-6.6c-15.6,0.1-8,0.9-19.3,9.2c-4.5,3.3-5.7,4.6-9.4,8.2
	c-2.4,2.4-5.1,5.2-6.8,8.1c-5.8,9.8-8.5,10.8-14.9,8.5C43.4,69.7,45.3,69.7,43.5,70"/>
<g>
	<path class="st0" d="M7.7,141.2l0,19.6l21-0.1c3.3,0,5.6,0,6.8-3.7c0.7-2.3,0.2-6-2-7.5c4.5-4.2,1.8-10.6-5.3-10.3l-20.5-0.1
		L7.7,141.2z M16.8,145.2l10.2,0l0,2.7l-10.2,0L16.8,145.2z M16.8,152.3l10.2,0l0,2.7l-10.2,0L16.8,152.3z"/>
	<path class="st0" d="M70.2,161.1l9.1,0l0-8.6l10,0l0,8.6l8.9,0c0-2.4,0.2-16.6,0-17.8c-0.3-1.9-3.6-3.4-5.3-3.5
		c-1.6-0.1-16.7-0.1-17.7,0.1c-2.4,0.5-4,1.3-4.7,3.6C69.9,145.2,70.2,158.2,70.2,161.1 M79.3,145.5l10,0l0,3l-10,0L79.3,145.5z"/>
	<polygon class="st0" points="163.8,142.5 163.8,161.7 172.9,161.7 173,153 183.2,153 183.2,161.9 192.3,161.9 192.3,140.4 
		183.2,140.4 183.2,147.7 172.9,147.7 172.9,140.4 163.8,140.4 	"/>
	<path class="st0" d="M160.5,161.7l0-5.9l-17.5,0l0-10l17.5,0l0-5.4c-6.2-0.1-12.4,0-18.6,0c-2.9,0-5-0.1-6.7,2.4
		c-1.9,2.8-1.3,4.8-1.3,8.1c0.1,7.6-0.7,10.1,7.8,10.7C147.4,162,154.6,161.7,160.5,161.7"/>
	<polygon class="st0" points="122,150.3 112.9,139.8 102,139.8 102.1,161.4 110.7,161.4 110.8,148.1 121.5,161.4 130.3,161.4 
		130.3,132.8 122,132.8 	"/>
	<path class="st0" d="M39.5,140.6l0,20.2l9.1,0l0.1-8l9,0.1l0.1,14.9h8.9V153l-2.8-2.8c0.8-0.7,1.7-0.9,2.3-1.9c1-1.7,1-5.3-0.5-6.7
		c-1.8-1.7-3.5-2-7.5-2l-18.7,0L39.5,140.6z M48.6,145.2l9.4,0v3l-9.4,0L48.6,145.2z"/>
</g>
</svg>
