<?xml version="1.0" encoding="utf-8"?>
<!-- Generator: Adobe Illustrator 19.2.0, SVG Export Plug-In . SVG Version: 6.00 Build 0)  -->
<svg version="1.1" id="Capa_1" xmlns="http://www.w3.org/2000/svg" xmlns:xlink="http://www.w3.org/1999/xlink" x="0px" y="0px"
	 viewBox="0 0 200 200" style="enable-background:new 0 0 200 200;" xml:space="preserve">
<style type="text/css">
	.st0{fill:#1F1A17;}
</style>
<g>
	<path class="st0" d="M174.5,117.8c-5.7-1.6-8.6-5.2-9.7-8.4c1.9-1.6,4.2-2.9,6.4-4.4c1.3-0.9,1.7-1.8,2.2-3.1
		c0.6-1.7,1.3-4,1.3-5.2c0-0.9,0-1.5-1.1-1.5c-1.1,0-4.7,2.4-5.6,3c-5,3.4-9.2,7.6-12.9,12.3c1.7-6.7,3.6-16.7,4.4-21.7
		c0.3-1.6,0.7-3.8-0.2-5.3c-0.7-1.2-2.6-3.4-4.2-4.3c-1.5-0.8-2.2,0.2-2.5,1.5c-1,4.9-1.5,7.5-2.3,11.5c-1.2,5.6-2.2,10.2-4.7,16.5
		c-1.4,3.6-4.7,9.9-8.3,9.9c-3.6,0-2.3-8.6-2.3-11c0-0.8-0.1-2.8-2.1-3.3c-6.6-1.5-7.5-3.6-8.8-3.4c-0.8,0.1-1.3,0.9-1.6,2
		c-1.3,4.3-2,8.3-4.6,12.1c-1.2,1.8-3.4,3.9-5.1,3.9c-1.7,0-2.3-1.5-2.3-3c0-4.2,1.2-8.6,1.7-11c0.4-1.8-0.6-2.1-1.5-2.4
		c-1.2-0.3-2.7-0.4-3.2-0.4c-5.1,0-9.8,1.7-13.7,4.9c-1.6,1.3-3,3-4.3,4.6c-1.5,1.8-5.9,7.2-8.5,7.2c-1.8,0-2-2.1-2-3.5
		c0-6.3,3-15.8,5.3-21.5c1.5-3.8,3.1-7.2,3.5-9.3c0.4-1.7,0-3.2-1-4.4c-1.2-1.7-2.6-2.8-3.8-3.4c-0.9-0.4-1.7-0.2-2.3,0.7
		c-1,1.4-2.2,4.1-2.7,5.2c-3.9,8.5-6.9,18.4-6.8,27.9c0,5,0.6,14.3,7.5,14.3c3.8,0,7.1-2.3,9.6-5.1c0.5,3.3,3.1,5.1,6.7,5.1
		c4,0,7.6-2.3,10-5.3c0.8,3.3,3.4,5.3,6.8,5.3c8.2,0,13-9,15.2-15.7c0.3,0.2,0.7,0.3,0.7,0.3c-0.1,0.8-0.1,2-0.1,2.9
		c0,5.3,1.3,12.6,8.2,12.6c5.9,0,9.7-5.5,12.4-10h0.2c-0.5,3.1-1.1,5.5-1.3,8.7c-0.1,1.3,1.8,1.2,2.7,1.2c4.2,0,4-1,5.1-4.6
		c0.7-2.3,2.5-4.1,4.3-5.7c0.9,1.9,2.9,5.1,5.8,7.5c1.8,1.5,4.3,2.8,6.5,2.8c1,0,1.4-0.1,2.1-0.7c1.5-1.2,2.7-3.7,2.8-4.6
		C176,118.6,175.3,118,174.5,117.8 M100.3,117.4c-0.8,0.7-1.8,1.1-2.8,1.1c-1.2,0-2.2-0.7-2.2-2.4c0-4.3,5.9-8.2,9.8-8.2
		C104.3,111.2,103.6,114.6,100.3,117.4z"/>
	<path class="st0" d="M196.3,113.1c0.2,3.9-2.7,6.8-6.7,8.9c-4.2,2.3-9,3.5-12.6,3.1c-0.8-0.1-1.3-0.6-1.1-1.7
		c0.2-1.1,0.5-2,0.9-2.8c0.6-1.1,1.3-1.8,2.9-2c1-0.1,2.9-0.2,4.6-0.7c1.9-0.6,4-1.5,4-3.1c0-2.9-12.6-1.2-12.6-6.9
		c0-5.7,9.4-8.4,13.1-9.4c1.6-0.5,3.5-0.7,4.3-0.7c0.9,0,1.3,0.6,1.1,1.3c-0.4,1.7-1.1,3.8-3,4.3c-0.8,0.2-5.3,1.1-6.8,1.8
		c-0.5,0.2-0.7,0.5-0.7,0.9c0,0.4,0.5,0.6,1.3,0.8C188.1,107.9,196,108.3,196.3,113.1"/>
	<path class="st0" d="M68.9,124.6c-1.3,0-2.5-0.2-3.7-0.3c-4.4-0.6-8.4-0.9-12.4-0.9c-8.1,0-14.5,0.8-21.7,1.9
		c-5.6,0.9-10.4,1.5-14.7,1.6c-6.2,0.2-12.6-1.1-12.6-8.6c0-8.8,9.8-19.7,19-27.1C31.6,84,41.4,79,47.7,76.4
		c4.2-1.7,9.4-3.3,12.6-3.3c3.1,0,2.6,2.7,0.3,6.7c-2.1,3.7-3.1,4.6-6.1,5c-5.2,0.7-12.7,1.3-26.9,12.2
		c-8.1,6.2-15.5,14.8-15.3,19.2c0.1,2.8,2.2,3.7,4.7,3.7c3.7,0,8-0.8,13.3-1.8c8.4-1.5,18.8-3.7,27.6-3.7c2.4,0,4.6,0.3,6.6,0.8
		c1.5,0.4,2.5,1.3,3.5,2.6c0.8,1.1,1.5,2.3,2.1,3.4c0.5,1,0.9,2.1,0.6,2.7C70.6,124.3,70.1,124.6,68.9,124.6"/>
</g>
</svg>
