<?xml version="1.0" encoding="utf-8"?>
<!-- Generator: Adobe Illustrator 19.2.0, SVG Export Plug-In . SVG Version: 6.00 Build 0)  -->
<svg version="1.1" id="Capa_1" xmlns="http://www.w3.org/2000/svg" xmlns:xlink="http://www.w3.org/1999/xlink" x="0px" y="0px"
	 viewBox="0 0 200 200" style="enable-background:new 0 0 200 200;" xml:space="preserve">
<g>
	<polygon points="118.4,81.8 75.9,128.2 112.4,128.2 154.9,81.8 112.4,35.4 75.9,35.4 	"/>
	<polygon points="75.9,75.6 75.9,55.4 64.4,71.7 45.4,65.5 57.3,81.8 45.5,98.1 64.4,91.9 75.9,108.3 75.9,88 95.1,81.8 	"/>
	<polygon points="71.3,154.4 62,142.3 56.1,142.3 56.1,163.8 61.8,163.8 61.8,151.7 70.5,163.8 77,163.8 77,142.3 71.3,142.3 	"/>
	<path d="M142.9,150.3h-5.1V148h5.1c0.7,0,1.3,0.5,1.3,1.1C144.2,149.8,143.6,150.3,142.9,150.3 M150.2,148.6
		c-0.3-3.6-3.4-6.4-7.1-6.4h-11v21.5h5.7V156h2.6c0.3,0,0.5,0,0.6,0.3l3.7,7.5h6.5l-4.5-8.8C149.1,153.7,150.4,151.3,150.2,148.6z"
		/>
	<polygon points="108.9,163.8 126.1,163.8 126.1,158.1 114.6,158.1 114.6,155.5 125,155.5 125,150.3 114.6,150.3 114.6,148 
		126.1,148 126.1,142.3 108.9,142.3 	"/>
	<path d="M16.1,147.6c1.7,0,3.3,0.8,4.4,2.2l0.4,0.5l5.1-3.5l-0.5-0.6c-2.3-2.8-5.7-4.5-9.5-4.5c-6.6,0-11.9,5.1-11.9,11.4
		c0,6.3,5.4,11.4,11.9,11.4c3.7,0,7.2-1.6,9.4-4.4l0.5-0.6l-5.1-3.5l-0.4,0.5c-1.1,1.3-2.7,2.1-4.4,2.1c-3,0-5.6-2.5-5.6-5.5
		C10.5,150.1,13,147.6,16.1,147.6"/>
	<path d="M40,158.5c-3,0-5.5-2.4-5.5-5.5c0-3,2.4-5.5,5.5-5.5c3,0,5.5,2.4,5.5,5.5C45.4,156.1,43,158.5,40,158.5 M40,141.7
		c-6.4,0-11.6,5.1-11.6,11.4c0,6.3,5.2,11.4,11.6,11.4c6.4,0,11.6-5.1,11.6-11.4C51.6,146.8,46.4,141.7,40,141.7z"/>
	<path d="M93.4,157.6L93.4,157.6c0,0.2-0.2,0.2-0.3,0.2c-0.1,0-0.3,0-0.3-0.2l-4.8-15.3h-6.6l7,21.5h9.4l7-21.5h-6.6L93.4,157.6z"/>
	<polygon points="195.8,148 195.8,142.3 178.6,142.3 178.6,163.8 195.8,163.8 195.8,158.1 184.4,158.1 184.4,155.5 194.7,155.5 
		194.7,150.3 184.4,150.3 184.4,148 	"/>
	<path d="M165.6,150.4c-3.1-0.7-3.9-1.1-3.9-2.2v-0.1c0-0.8,0.6-1.4,2.1-1.4c2,0,3.6,0.6,5.8,1.9l3.4-4.1c-2.4-1.9-5.3-3-9.1-3
		c-5.3,0-8.5,3-8.5,7.1v0.1c0,4.6,3.8,5.9,8.5,7c3,0.7,3.9,1.2,3.9,2.1v0.1c0,1-1.1,1.5-2.7,1.5c-2.6,0-5.1-0.9-7.3-2.7l-3.5,4.1
		c2.7,2.4,6.7,3.7,10.6,3.7c5.4,0,9.2-2.7,9.2-7.2v-0.1C174,153.1,170.8,151.5,165.6,150.4"/>
</g>
</svg>
