<?xml version="1.0" encoding="utf-8"?>
<!-- Generator: Adobe Illustrator 19.2.0, SVG Export Plug-In . SVG Version: 6.00 Build 0)  -->
<svg version="1.1" id="Capa_1" xmlns="http://www.w3.org/2000/svg" xmlns:xlink="http://www.w3.org/1999/xlink" x="0px" y="0px"
	 viewBox="0 0 200 200" style="enable-background:new 0 0 200 200;" xml:space="preserve">
<style type="text/css">
	.st0{fill-rule:evenodd;clip-rule:evenodd;}
	.st1{fill-rule:evenodd;clip-rule:evenodd;fill:#231F20;}
	.st2{fill-rule:evenodd;clip-rule:evenodd;fill:#FFFFFF;}
</style>
<g>
	<path d="M37.3,167.9c2,0,4,1.1,5,2.6c0,0,0.1,0.1,0.1,0.1c0,0.1,0.1,0.1,0.1,0.2l0,0c0.7,0.9,1.8,1.5,3,1.5c2.2,0,3.9-1.8,3.9-3.9
		c0-1-0.4-1.9-1-2.6c-2.7-3.3-5.9-5.2-11.2-5.2c-8.4,0-14.7,5.8-14.7,14c0,8.3,6.3,14.1,14.7,14.1c5.4,0,8.5-1.9,11.2-4.9l0,0
		c0.6-0.7,1-1.6,1-2.5c0-2.1-1.7-3.8-3.8-3.8c-1.2,0-2.2,0.5-2.9,1.3c-1.3,1.3-2.7,2.5-5.4,2.5c-3.9,0-6-2.8-6-6.7
		C31.3,170.6,33.5,167.9,37.3,167.9 M156.7,171.1c-3.7-0.8-5.4-1-5.4-2.5c0-1.1,0.9-1.6,2.9-1.6c2,0,3.9,0.9,5.2,2l0,0
		c0.6,0.6,1.4,0.9,2.3,0.9c1.8,0,3.3-1.5,3.3-3.3c0-1-0.4-1.9-1.1-2.5c-2.2-2.2-5.4-3.7-9.7-3.7c-5.8,0-10.4,2.5-10.4,8.5
		c0,5.6,4.1,7.6,7.8,8.6c4.4,1.1,6.1,1.1,6.1,2.6c0,1.1-0.9,1.6-3.7,1.6c-2.2,0-4.2-0.8-5.9-2.1l0.1,0.1c0,0,0,0,0,0
		c-1.4-1.2-3.5-1.2-4.7,0.2c-1,1.1-1.2,2.7-0.5,3.9c0,0,0,0.1,0.1,0.1c0.1,0.1,0.1,0.2,0.2,0.3c0.1,0.1,0.1,0.1,0.2,0.2
		c0.1,0.1,0.1,0.2,0.2,0.2c0.1,0.1,0.1,0.1,0.2,0.1c2.3,2.1,5.7,3.7,10.9,3.7c8.5,0,11.1-4,11.1-9
		C165.6,173.8,160.6,172,156.7,171.1z M92.8,160.4c-8.3,0-14.9,5.9-14.9,14.1c0,8.1,6.5,14,14.9,14c8.3,0,14.8-5.8,14.8-14
		C107.6,166.3,101.1,160.4,92.8,160.4z M92.8,181.3c-3.8,0-6.1-2.8-6.1-6.8c0-4,2.3-6.8,6.1-6.8c3.8,0,6.1,2.7,6.1,6.8
		C98.8,178.5,96.6,181.3,92.8,181.3z M126.8,167.9c2,0,4,1.1,5,2.6c0,0,0.1,0.1,0.1,0.1c0,0.1,0.1,0.1,0.1,0.2l0,0
		c0.7,0.9,1.8,1.5,3,1.5c2.2,0,3.9-1.8,3.9-3.9c0-1-0.4-1.9-1-2.6c-2.7-3.3-5.9-5.2-11.2-5.2c-8.4,0-14.7,5.8-14.7,14
		c0,8.3,6.3,14.1,14.7,14.1c5.4,0,8.5-1.9,11.2-4.9l0,0c0.6-0.7,1-1.6,1-2.5c0-2.1-1.7-3.8-3.8-3.8c-1.2,0-2.2,0.5-2.9,1.3
		c-1.3,1.3-2.7,2.5-5.4,2.5c-3.9,0-6-2.8-6-6.7C120.8,170.6,123,167.9,126.8,167.9z"/>
	<path class="st0" d="M73.7,162.2c-1.3-0.7-2.2-0.8-4.2-0.7c-3.5,0.3-6.3,2.8-6.7,3.4v0.2c0-0.1,0-0.1,0-0.2c0,0,0,0,0,0v0
		c-0.2-2.3-2-4-4.3-4c-2.4,0-4.3,1.9-4.4,4.3v19.1c0.1,2.3,2,4.2,4.4,4.2c2.4,0,4.3-1.9,4.4-4.3v-5.2c0-7.1,4.1-8.9,6.4-8.9
		c0.6,0,2.2,0.6,3.4,0.4c2.4-0.4,3.9-2.7,3.5-5.1C75.8,163.9,74.9,162.8,73.7,162.2"/>
	<path class="st0" d="M168.1,160.7h0.1v-0.7c0-0.2,0-0.3,0-0.4c0-0.1,0-0.2,0.1-0.3c0-0.1,0.1-0.1,0.2-0.2c0.1,0,0.2-0.1,0.3-0.1
		c0.1,0,0.3,0.1,0.4,0.2c0.1,0.1,0.1,0.2,0.1,0.3c0,0.1,0,0.2,0,0.4l0,0.8h0.4c0.2,0,0.3,0,0.4,0.1c0.1,0.1,0.1,0.2,0.1,0.3
		c0,0.1-0.1,0.3-0.2,0.3c-0.1,0.1-0.3,0.1-0.5,0.1h-0.2v2c0,0.2,0,0.3,0,0.4c0,0.1,0,0.2,0.1,0.2c0.1,0.1,0.1,0.1,0.3,0.1
		c0.1,0,0.2,0,0.3,0c0.1,0,0.2,0,0.3,0c0.1,0,0.2,0,0.2,0.1c0.1,0.1,0.1,0.2,0.1,0.3c0,0.2-0.1,0.3-0.3,0.4
		c-0.2,0.1-0.5,0.1-0.8,0.1c-0.3,0-0.6-0.1-0.8-0.2c-0.2-0.1-0.3-0.3-0.3-0.5c-0.1-0.2-0.1-0.5-0.1-0.8v-2.1h-0.1
		c-0.2,0-0.3,0-0.4-0.1c-0.1-0.1-0.1-0.2-0.1-0.3c0-0.1,0-0.2,0.1-0.3C167.8,160.8,168,160.7,168.1,160.7"/>
	<path class="st0" d="M174.8,163v1.5c0,0.2-0.1,0.4-0.2,0.5c-0.1,0.1-0.2,0.2-0.4,0.2c-0.2,0-0.3-0.1-0.4-0.2
		c-0.1-0.1-0.2-0.3-0.2-0.5v-1.8c0-0.3,0-0.5,0-0.7c0-0.2-0.1-0.3-0.2-0.4c-0.1-0.1-0.2-0.1-0.4-0.1c-0.4,0-0.6,0.1-0.7,0.4
		c-0.1,0.2-0.2,0.6-0.2,1.1v1.5c0,0.2-0.1,0.4-0.2,0.5c-0.1,0.1-0.2,0.2-0.4,0.2c-0.2,0-0.3-0.1-0.4-0.2c-0.1-0.1-0.2-0.3-0.2-0.5
		v-3.2c0-0.2,0-0.4,0.1-0.5c0.1-0.1,0.2-0.2,0.4-0.2c0.2,0,0.3,0,0.4,0.2c0.1,0.1,0.2,0.2,0.2,0.4v0.1c0.2-0.2,0.4-0.4,0.6-0.5
		c0.2-0.1,0.5-0.2,0.7-0.2c0.3,0,0.5,0.1,0.7,0.2c0.2,0.1,0.4,0.3,0.5,0.5c0.2-0.2,0.4-0.4,0.6-0.5c0.2-0.1,0.5-0.2,0.7-0.2
		c0.3,0,0.6,0.1,0.8,0.2c0.2,0.1,0.4,0.3,0.5,0.5c0.1,0.2,0.1,0.5,0.1,1l0,2.2c0,0.2-0.1,0.4-0.2,0.5c-0.1,0.1-0.2,0.2-0.4,0.2
		c-0.2,0-0.3-0.1-0.4-0.2c-0.1-0.1-0.2-0.3-0.2-0.5v-1.9c0-0.2,0-0.4,0-0.6c0-0.1-0.1-0.3-0.2-0.4c-0.1-0.1-0.2-0.1-0.4-0.1
		c-0.1,0-0.3,0-0.4,0.1c-0.1,0.1-0.2,0.2-0.3,0.3C174.8,162.2,174.8,162.5,174.8,163"/>
	<path class="st1" d="M45.8,76.6c0,0-0.9,1.4-1.7,1.3c-0.7-0.1-1.1-0.4-0.6-1.4c0,0,1-0.7,1.4-0.7c0.5,0,0.6-0.1,0.8-0.2
		C45.9,75.4,46.4,76,45.8,76.6"/>
	<path class="st0" d="M160.2,79.9c0,37.8-30.6,68.4-68.4,68.4c-37.8,0-68.4-30.6-68.4-68.4c0-37.8,30.6-68.4,68.4-68.4
		C129.6,11.5,160.2,42.1,160.2,79.9"/>
	<path class="st2" d="M28.3,79.9c0,35,28.5,63.5,63.5,63.5c35,0,63.5-28.5,63.5-63.5c0-35-28.5-63.5-63.5-63.5
		C56.7,16.5,28.3,44.9,28.3,79.9 M31.7,79.9c0-33.1,26.9-60,60-60c33.1,0,60.1,26.9,60.1,60c0,33.1-26.9,60.1-60.1,60.1
		C58.6,140,31.7,113.1,31.7,79.9z"/>
	<path class="st2" d="M133.5,77.9h0.2V77c0-0.3,0-0.5,0-0.6c0-0.1,0.1-0.3,0.1-0.4c0.1-0.1,0.1-0.2,0.3-0.3c0.1-0.1,0.2-0.1,0.4-0.1
		c0.2,0,0.4,0.1,0.5,0.2c0.1,0.1,0.2,0.2,0.2,0.4c0,0.1,0,0.3,0,0.6v1.1h0.6c0.2,0,0.4,0.1,0.5,0.2c0.1,0.1,0.2,0.2,0.2,0.4
		c0,0.2-0.1,0.4-0.2,0.4c-0.2,0.1-0.4,0.1-0.7,0.1h-0.3v2.9c0,0.2,0,0.4,0,0.6c0,0.1,0.1,0.2,0.1,0.3c0.1,0.1,0.2,0.1,0.4,0.1
		c0.1,0,0.2,0,0.4,0c0.2,0,0.3,0,0.4,0c0.1,0,0.2,0.1,0.3,0.2c0.1,0.1,0.2,0.2,0.2,0.4c0,0.2-0.1,0.4-0.4,0.6
		c-0.3,0.1-0.7,0.2-1.2,0.2c-0.5,0-0.9-0.1-1.1-0.2c-0.3-0.2-0.4-0.4-0.5-0.7c-0.1-0.3-0.1-0.7-0.1-1.2v-3h-0.2
		c-0.2,0-0.4-0.1-0.5-0.2c-0.1-0.1-0.2-0.2-0.2-0.4c0-0.2,0.1-0.3,0.2-0.4C133.1,78,133.2,77.9,133.5,77.9"/>
	<path class="st2" d="M142.9,81.1v2.1c0,0.3-0.1,0.6-0.2,0.7c-0.1,0.2-0.3,0.2-0.6,0.2c-0.2,0-0.4-0.1-0.6-0.2
		c-0.1-0.2-0.2-0.4-0.2-0.7v-2.5c0-0.4,0-0.7,0-0.9c0-0.2-0.1-0.4-0.2-0.5c-0.1-0.1-0.3-0.2-0.6-0.2c-0.5,0-0.9,0.2-1,0.5
		c-0.2,0.4-0.2,0.9-0.2,1.5l0,2.1c0,0.3-0.1,0.6-0.2,0.7c-0.1,0.2-0.3,0.3-0.6,0.3c-0.2,0-0.4-0.1-0.6-0.2c-0.2-0.2-0.2-0.4-0.2-0.7
		v-4.5c0-0.3,0.1-0.5,0.2-0.7c0.1-0.2,0.3-0.2,0.5-0.2c0.2,0,0.4,0.1,0.5,0.2c0.1,0.1,0.2,0.3,0.2,0.6v0.1c0.3-0.3,0.6-0.6,0.9-0.7
		c0.3-0.1,0.7-0.2,1-0.2c0.4,0,0.7,0.1,1,0.2c0.3,0.2,0.5,0.4,0.7,0.7c0.3-0.3,0.5-0.6,0.8-0.7c0.3-0.2,0.6-0.2,1-0.2
		c0.4,0,0.8,0.1,1.1,0.2c0.3,0.2,0.5,0.4,0.7,0.7c0.1,0.3,0.2,0.7,0.2,1.3v3.1c0,0.3-0.1,0.6-0.2,0.7c-0.1,0.2-0.3,0.2-0.6,0.2
		c-0.2,0-0.4-0.1-0.6-0.3c-0.2-0.2-0.2-0.4-0.2-0.7v-2.6c0-0.3,0-0.6,0-0.8c0-0.2-0.1-0.4-0.2-0.5c-0.1-0.1-0.3-0.2-0.6-0.2
		c-0.2,0-0.4,0.1-0.6,0.2c-0.2,0.1-0.3,0.3-0.4,0.5C142.9,79.9,142.9,80.4,142.9,81.1"/>
	<path class="st2" d="M105.3,100.7c-0.5-1.2-3.6-0.2-3.6-0.2c-17.6,1-23.7-1.6-23.7-1.6s-1.9-0.6-2.3-0.5c-0.4,0.1-2.2,0-2.3,2.2
		c-0.1,2.2,3,2.3,3.4,2.3c0.4,0,1.6,0.2,1.6,0.2c6.4,2.2,21.5,1.5,21.5,1.5c0,0,1.3-0.1,1.9-0.2C104.6,103.9,105.8,102,105.3,100.7
		 M142.8,88.7c-4.2-1.3-9.6-0.2-9.6-0.2s-0.8-1.8-3.1-3.1c-1.5-0.8-4.5-1.6-7-1.6c-1.2,0-5.7,0.8-7.5,1.5c-0.3,0.1-1.3,0.3-1.1-0.7
		c0.2-0.8,2-2,3.4-2.3c3-0.8,6.7-1.2,8.3-0.4c2.8,1.3,1-3.5,2-6c0.9-2.5-2.6-3.2-3.8-3.7c-1.2-0.5-1.7-2-0.9-2.7
		c0.7-0.7,1.4-2,1.2-3.7c-0.2-1.7-2.8-1.7-4-2.2c-1.2-0.5-0.7-2,0.7-3c1.4-1,2.6-4,2.1-5.5c-0.5-1.5-2.1-1-3.3-1
		c-1.2,0-1.9-0.5-2.4-1.5c-0.5-1,0.7-1.5,1.2-2.7c0.5-1.2,0-2.3-1.9-2.5c-1.2-0.1-2.4-0.5-2.4-1.7c0-1.2,2.4-3,1.7-4.7
		c-0.7-1.7-2.8-0.7-3.8-0.7c-0.9,0-0.7-0.7-0.2-4.2c0.5-3.5-1.4-3.3-3.6-2.9c-1.6,0.3-2.8,2.1-4.5,1.9c-1.7-0.2-5.2-5.5-6.8-6.7
		c-1.7-1.2-3.9-4.5-7.6-1.1c-0.6,0.5-1.8,1.9-2.7,2.6c-0.3,0.2-0.6,0.3-0.9,0.6c-1.6,1-3.4,1.4-4.4,1.4c-2.1,0-3.7-5.5-6.3-6
		c-2.6-0.5-4.4,2-6.5,6.6c-0.6,1.4-1.3,3.1-0.9,4.7c0.5,2,1.5-1.7,4.4-1.7c1.3,0,2.3,0.3,3.1,0.8c1.5,1,2.3,2.7,2.1,4.1
		c-0.2,1.5-0.2,3.1-2.1,4.7c-2.1,1.3-4.4,0.9-5.4,0.3c-0.5-0.2-0.7-0.3-1.1-0.8c-0.1-0.2-0.4-0.5-0.6-1c-0.1-0.4-0.4-0.6-0.7-0.3
		c-0.3,0.4-0.4,1-0.4,1c-0.3,1.5-1.7,5.4-2.9,7.1c-1.2,1.7-4.7,3.5-6.1,4.7c-1.4,1.2-4.2,3.7-5.2,6.9c-1,3.2-2.1,5.2-3.3,6.2
		c-1.2,1-6.6,3.9-8,6.1c-0.9,1.4-0.3,1-1,2.6c-1.4,3.5,3.1,5.5,4.5,6.2c1.4,0.7,4.2,2,5.5,4.3c0.4,0.8,2,2.2,6.3,1.2
		c4.3-1,5.6-5.3,5.6-5.3c0.2-0.7,0.5-1.6,1.5-1.6c0.9,0,1.7,0.5,2.8,0.5c1.2,0,2-1.9,1.9-3.6c0-1-0.3-0.7-0.5-1.5
		c-0.1-0.4,0.8-0.4,1-0.2c0.2,0.3,0.1,0.4,2.9,1.6c3.4,1.4,5.3-5,6-6.8c0.7-1.7,0.7-5.1,0.7-6.4c0-1.2,0.2-1.5,1.2-2
		c0.9-0.5,1.7,0.7,5.7,0.7c4,0,2.6-4.7,2.8-7.2c0.2-1.6-0.1-2.5-1.2-2.9c-0.5-0.2-1.4-0.9-1-1.4c0.9-1.1,1.5,0.4,2.5,0.6
		c0.9,0.2,1.5,0.4,3-0.3c1.2-0.6,2.4-3.3,3-4C96,48.8,97,52.5,96,54c-0.9,1.5-3.4,2.4-4.3,4.7c-0.9,2.2-0.8,6.8-0.8,7.9
		c-0.1,1.3-2.1,1.5-2.8,1.4c-2.7-0.2-4.1-1.4-5.6-1.4c-1.4,0-1.8,3.5-1.8,4.5c0,1,0.5,2.1-0.4,3.3c-0.9,1.2-2.1,2.2-2.6,3.7
		c-0.5,1.5-0.6,2.5-2,3.5c-1.4,1-3.3-0.6-4.2-0.8c-1.3-0.2-2,2.4-2.5,3.9c-0.3,0.9-2.7,3.1-4.8,3.8c-3.6,1.3-3.5,2.4-3.6,3.1
		c-0.2,1.2,0.6,2.8,4,3.2c1.4,0.2,5-1.4,5.7-2.6c1.5-2.4,2-1.9,3.2-2.4c1.2-0.5,2.9-0.9,4-1.4c7-3.3,11.7-6.7,13.1-7.9
		c1.4-1.2,1.9-2.6,1.6-3.6c-0.2-1,0.4-1.4,1.1-0.9c0.7,0.5,4.6,1.2,8.9-2.3c4.3-3.5,4.2-12.1,4.2-13.4c0-1.2,0.5-2.2,1.9-0.7
		c1.4,1.5,0.8,9.1-1.9,13.9c-1.3,2.2-2.8,3-3.7,5.2c-0.9,2.2,3.3,6.2,3.8,7.4c0.5,1.2,0.2,4.2,0,7.4c-0.2,3.2,0.2,4,1.9,4.8
		c1.7,0.7,1.5-0.3,3-1.2c1.8-1.2,5.5-1.8,6.9-1.7c7,0.2,8.9,2.1,8.6,3.1c-0.4,1.2-3.8-0.9-9.4-0.6c-5.7,0.2-9.9,5.7-10.8,6.8
		c-1,1.4-1.7,2.8-2.2,5.8c-0.3,1.5,0,2.4,0.8,2.7c1,0.5,3-0.8,3.5-2.5c0.5-1.5,1.8-3.5,2.6-4.2c1.1-1.1,1.8-1.8,2.3-2
		c1-0.5,0.9,0.7,0.1,2.2c-0.4,0.9-0.7,1.5-1.1,2.8c-0.3,1.3-0.4,1.7-0.5,2.4c-0.2,0.8-0.3,1.2-0.2,2.5c0.1,1.1,0.6,2.2,1.7,2.1
		c1-0.1,2.3-1.9,2.9-3.1c0.3-0.6,0.4-1.7,0.9-3.5c0.6-1.9,0.5-2.1,0.8-3c0.5-1.4,1-2.1,1.9-2.4c0.9-0.2,0.9,1.7,0.9,1.7
		c0,0.6-0.1,0.8-0.7,2.7c-0.3,1-0.8,3.5-1,4.9c-0.2,1.7,0.6,2.6,1.9,2.2c2.6-0.8,2.8-3.4,3.2-5c0.2-0.7,0.5-2.4,0.7-3
		c0.3-0.9,0.5-1.6,0.9-2.5c0.5-0.9,1-1.5,2.4-1.2c1.4,0.3,5.3,1.8,11.1,0.7c4.6-0.9,9.6-4.3,10.3-9C150.6,91.4,146.9,90,142.8,88.7z
		 M57,79.5c-0.2,0.2-0.5,1.5-0.5,1.9c0,0.4-0.6,1.6-1.7,1.6c-0.3,0-0.7,0.1-1-1.1c-0.2-1.2,2.2-2.7,2.2-2.7
		C56.7,78.9,57.3,79.3,57,79.5z M92.5,43c-0.5,1.1-1.2,2.1-2.1,2.4c-0.9,0.3-2.5,0.6-3.9,0.4c-1.2-0.2-1.8-0.7-2.7-1.7
		c-1.4-1.5-1.4-6.6,1.2-8.6c0.4-0.3,1.7-0.9,1.9-1c1.1-0.1,2.5,0.1,3.6,0.9c1.2,0.9,1.2,1.1,1.9,2.3C93.2,39.3,93.1,41.7,92.5,43z
		 M84,87.3c-0.7,1.1-0.6,2.9,2.9,3.1c3.4,0.2,12.7,0.1,13.6,0.1c0.9,0.1,3.5,0.5,3.9-0.7c0.4-1.2,0.8-3.2-1.8-3.3
		c-2.6-0.1-4.3,0.5-8.8,0.5c-4.6-0.1-6.7-0.6-6.7-0.6S84.8,86.1,84,87.3z M97.3,84.5c1.4-0.2,3.2-0.4,3.7-0.5
		c1.1-0.3,0.5-1.4,0.3-2.2c-0.2-0.8-1-1.8-2-1.5c-1,0.3-1.9,0.4-3.2,0.6c-1.3,0.3-3.2,0.5-3.2,0.5c0,0-1.6,0.3-2,1.3
		c-0.4,0.9-1.1,2.3,0.4,2.4C92.9,85.1,96.5,84.6,97.3,84.5z M76,93.6c-0.1,1.4,0.9,1.8,1.8,2c1.1,0.2,2.1,0.6,2.1,0.6
		c4.8,0.9,13.5,1.5,19.5,1.3c1.2,0,1.3,0.3,3.1,0.1c1.8-0.2,2.1-1.5,2-3.2c-0.1-1.7-3-1.2-3-1.2c-13.6,0.6-22.3-1.6-22.3-1.6
		C77.1,91.1,76.2,92.2,76,93.6z"/>
	<path class="st2" d="M73,36.3c-2,0-3.6,1.9-3.6,4.3c0,2.4,1.1,4.3,3.1,4.3c0,0,0.2,0,0.2-0.2c0-0.2-0.1-0.3-0.1-0.3
		c-0.4-0.2-1-0.8-1-2c0-0.9,0.4-1.7,0.9-2.2l0.5-0.2c0,0,0.6-0.3,0.8,0.1c0.1,0.2,0.2,0.7,0.2,1.1c0,0.4-0.1,1.1,0.1,1
		c0.3-0.2,0.4-0.5,0.4-0.8c0-0.1,0.1-0.6,0.1-1.1c0-0.1,0.1-0.2,0.2-0.2c0.1,0,0.2,0,0.2,0.1c0.1,0.1,0.2,0.2,0.3,0.3
		c0.3,0.4,0.4,1,0.3,1.8c-0.1,0.5-0.4,0.8,0,1c0.4,0,0.7-0.7,0.7-0.9c0.1-0.4,0.1-1.2,0.1-1.7C76.6,38.2,75,36.3,73,36.3"/>
	<path class="st2" d="M87.8,35.5c-2.2,0-3.9,2.1-3.9,4.6c0,2.6,1.2,4.6,3.4,4.6c0,0,0.2,0,0.2-0.2c0-0.2-0.1-0.4-0.1-0.4
		c-0.5-0.2-1.1-0.9-1.1-2.2c0-1,0.4-1.8,1-2.3l0.6-0.3c0,0,0.7-0.3,0.9,0.2c0.1,0.2,0.3,0.8,0.3,1.2c0,0.4-0.1,1.2,0.1,1
		c0.3-0.2,0.4-0.6,0.5-0.8c0-0.1,0.1-0.7,0.1-1.2c0-0.1,0.1-0.2,0.2-0.3c0.1,0,0.2,0,0.3,0.1c0.1,0.1,0.3,0.2,0.4,0.3
		c0.3,0.5,0.4,1.1,0.4,1.9c-0.1,0.6-0.4,0.8,0,1.1c0.4,0,0.7-0.8,0.8-0.9c0.1-0.4,0.2-1.3,0.2-1.8C91.8,37.5,90,35.5,87.8,35.5"/>
	<path class="st1" d="M44.4,77.6c0,0-1.9,0.4-1.5-0.7c0.4-1.1,1-1.4,1.4-1.5c0.3-0.1,0.6-0.1,0.9-0.3c0.2-0.1,0.4-0.6,0.5,0.1
		C45.8,75.8,44.7,77.8,44.4,77.6"/>
	<path class="st2" d="M73.1,94.4c-0.7-0.9-2.1,1.6-3.6,2.3c-0.6,0.3-1.4,0.9-4.1,0.7c-3.2-0.5-7.7-1.3-11.7-1.2
		c-5.4,0.2-9.4,4.9-10.1,6.1c-0.7,1.3-1.2,2-1.9,5.1c-0.2,1.2,0.3,2.5,1,2.8c1,0.4,2.1-0.1,2.6-1.7c0.5-1.5,1.9-4,2.6-4.7
		c1.1-1.1,1.1-1,1.6-1.2c0.6-0.3,1.6,0,0.9,1.1c-0.5,0.8-1,1.7-1.7,2.8c-0.5,0.9-0.9,1.4-1.2,2.3c-0.3,1-0.6,2.6-0.7,3.8
		c0,1.1,1.6,2.3,2.8,1.4c0.8-0.6,1.5-2.1,2.2-3.5c0.6-1.3,1.1-2.4,1.5-3.3c0.7-1.6,1.1-2.5,1.7-3c0.9-0.7,0.9-1,1.8-1.2
		c0.9-0.2,0.7,1.1,0.7,1.1c-0.2,0.6-0.9,1.5-1.3,2.1c-0.4,0.7-0.9,1.6-1.3,3.2c-0.4,1.6-0.9,4.4-0.1,5.2c1,1,2.8-0.2,3.1-1
		c1.2-2.9,1.2-4.4,1.5-5.5c0.2-0.8,0.9-2.4,1.3-2.9c0.2-0.3,1-1.8,1.6-2c0.8-0.3,1.3-0.4,2.2-0.1c0.6,0.2,0.6,0.5,1.5,0.6
		c2,0.4,3.3-1.1,3.7-2.5c0.7-2.1,1.5-2.6,2-3.2C72.8,96.9,73.8,95.2,73.1,94.4"/>
</g>
</svg>
