<?xml version="1.0" encoding="utf-8"?>
<!-- Generator: Adobe Illustrator 19.2.0, SVG Export Plug-In . SVG Version: 6.00 Build 0)  -->
<svg version="1.1" id="Capa_1" xmlns="http://www.w3.org/2000/svg" xmlns:xlink="http://www.w3.org/1999/xlink" x="0px" y="0px"
	 viewBox="0 0 200 200" style="enable-background:new 0 0 200 200;" xml:space="preserve">
<path d="M100.6,67.4c1.3,0.1,2.6,0.6,3.6,1.4c1.4,1.3,1.7,3.5,1.1,5.2c-2.5,5.2-8.5,8.7-12.6,9.8c-2.5,0.6-5.5,0.6-7.8-0.3
	c-1.1,0.6-2,2.7-3.3,1.9c-1.9-1.5-0.3-3.8-1.4-5.5c-0.2-0.3-0.8-0.4-1.1-0.9c-1.5-3.3,0.4-6.5,2.4-9C85.1,66.1,95,61.7,100.6,67.4
	L100.6,67.4z M89,69.9c-1.9,0.4-4.1,1.2-5.3,2.6c-1.2,1.4-1.9,2.7-1.2,4.2c2.5-1.9,3.7-4.5,6.6-6.1C89,70.4,89.4,70.2,89,69.9z
	 M100.7,70.7c-5-0.4-8.7,3.3-12.3,6.9c-0.2,0.6-1.5,1.2-0.5,1.9c4.8,0.4,9.3-0.9,12.8-4.1c1-0.9,1.7-2.2,1.2-3.5
	C101.8,71.4,101.2,70.9,100.7,70.7z M143.8,92.1c2.3,5.6,4.3,14.5,0,19.9c-1.2,1.3-3.2,2.5-4.5,1.5c-4.8-3.8-6.8-9.3-9.7-14.2
	c-0.4-0.2-0.4,0.4-0.6,0.6c-1.1,5,0.9,11.5-2.4,15.3c-1.3,0.2-2.5-0.5-3-1.7c-1.7-5.1,0.1-10.4,0.5-15.6c1-2.6,1.4-5.6,3.7-7.6
	c3.6,1.4,5.3,5.5,7.4,8.4c1.5,2.2,2.7,4.8,4.5,6.8c1.5-0.6,0.8-2.6,0.7-3.8c-0.6-4.7-1.9-9-3.1-13.5c-0.1-1.2-0.7-3.1,0.5-3.8
	C141,85.9,142.4,89.3,143.8,92.1z M122.1,90.4c0,1.1-0.9,2.4-1.6,2.6c-6.9,1.1-14.6,0.4-21.1,2.6c-0.2,0.8,0.7,0.9,1.2,1.2
	c5.5,0.9,11.4,1.1,16.8,2.5c2.9,0.7,3.9,4.1,4.1,6.9c0.1,2.2-0.7,4.9-2.9,6.4c-5.3,3.4-13.5,3.2-18.9,0.1c-2.1-1.2-4-3-4.2-5.3
	c0-1.8,0.8-3.3,2.1-4c5.2-2.1,11.6-0.9,16.1,1.7c0.3,1.4-1.3,1.4-2,1.9c-5,2.9-8.7-3.2-13.3-1c-0.6,0.4-1.1,1.6-0.4,2
	c5.7,2.5,12,0.7,17.7-0.9c0.6-0.2,1.4-0.9,1.5-1.5c-0.2-2.3-2.8-2.8-4.5-3.5c-4.9-1.2-10.3-1.2-15.6-1.7c-1-0.2-2.3-0.9-2.6-1.7
	C94,97,94,94.6,95.3,93.2c6.7-5.9,16.9-5.4,25.4-3.8C121.2,89.5,121.9,89.8,122.1,90.4L122.1,90.4z M90.6,93.2
	c0.6,6.9,1,13.3,0.9,20.6c-0.1,0.9-1.2,1.2-1.9,1.5c-1.2,0.2-2.6,0-3.1-0.6c-1.7-2.7-1.1-6.3-1.2-9.5c0.2-5.1,0.1-10.7,1.6-15.4
	c0.3-0.7,1.1-1.3,1.7-0.9C90.2,89.7,90.5,91.4,90.6,93.2L90.6,93.2z M170.6,92.1c0.3,0.6,0.7,1.5,0,1.9c-3.2,1.4-7.6,0.8-11.4,1.2
	c-1,0.9-1.8,2.3-1.4,3.6c0.4,0.2,0.7,0.5,1.1,0.5c2.3,0.1,5.8-1.1,7.3,1.1c0.4,0.6-0.1,3-1.1,3.1c-2.8,0.4-7.4-0.4-8.8,0.4
	c-1.7,1.2-1.6,3.4-2.2,5.2c1.2,0.8,2.5,0,4-0.2c2.7-0.4,5.6-1.2,8.3-0.6c0.5,0.9,1.2,1.9,0.7,3.1c-4.5,3.6-10.4,7.3-16.6,4.7
	c-2.3-1.1-3.4-4.6-2.6-7.6c0.5-2.2,2.7-4.3,1.4-6.6c-0.2-1,0.4-1.9,1.2-2.1c2.4,0,1.9-3,3.1-4.3c-1.4-1.5-4.8-1.4-4.5-4.5
	c1.7-0.9,3.7-0.6,5.5-0.9c4.3-0.9,9-1.4,13.3-0.9C168.8,89.4,169.9,91.1,170.6,92.1z M67.7,75.7c6.6,5.4,15.3,14.7,14.2,25.4
	c-1.3,8.4-10.2,14.8-17.8,16.8c-7.3,2.2-16.6,1.9-24.1,0.2c-0.5,1.4-1,3-2.6,3.6c-1,0.4-2.3,0.1-3.1-0.5c-2.2-2.1-0.4-6.1-3.7-7.4
	c-6.3-2.7-13.2-7.9-16.4-14.4c-0.4-1.3,0.1-2.6,0.9-3.6c5-4,11.2-5.5,17.5-6.8c0.4,0.1,0.2-0.4,0.5-0.5c0.4-4.3,0.5-8.7,1.9-12.6
	c0.3-0.5,1.1-0.7,1.6-0.4c4,3,2.1,8.7,3.8,12.8c7.6,0.4,15.1,0.7,21.1,5c2,1.7,2.5,4.8,1.9,6.6c-0.6,1.8-2.7,3.1-4.7,3.2
	c-1.3,0-3.7,0.1-3.6-0.9c0.1-1,4.4-2.6,3.1-4c-1.9-1.9-11.3-3.1-17.1-3.8c-0.7-0.1-1.4,0.1-1.4,0.9c-0.1,5.5-0.6,11.5,0.4,16.8
	c0.1,0.4,0.5,0.8,0.9,0.9c10.3,1.7,21.2,0.7,29.3-5.2c3.7-3,5-7.3,4.3-12c-3.2-13-16.9-20.9-28-25.9c-10.9-4.8-22.9-7.2-35.8-6.6
	c-2.1,0.2-5.3,0.9-5.3,1.6c0,0.7,3.7,0.5,3.2,1.9c-0.4,1.4-4.2,0.6-5.3,0.2c-1.1-0.3-1-1.9-0.7-3c2.8-5,10.7-5.4,14.2-5.5
	C36.3,58.1,55.3,65.5,67.7,75.7L67.7,75.7z M32.4,95c-5,0.1-10.2,0.6-14.8,2.3c-0.9,0.4-2.1,1.4-1.4,2.6c1.9,2.5,4.6,4.6,7.1,6.1
	c2.5,1.5,5.8,3.3,8.9,3.7c0.7-4.7,0.7-9.3,0.6-14.1C32.5,95.5,32.8,95.2,32.4,95L32.4,95z M181.4,88.5c-0.2,6.3-6.1,10.2-6.1,16.4
	c0.2,0.2,0.4,0.5,0.6,0.4c4.7-5.1,9.3-12.4,16.1-14.6c1.8-0.1,3.4,1.4,4.1,2.6c2.4,4.8,1.8,11.5-1.5,15.8c-3.4,4.2-9.4,8.5-16.1,7.8
	c-2.8,6.9-4.8,14.2-5.8,21.8c-0.6,1.5-1.9,0.1-2.8-0.1c-5.8-4.6-1-16.8-0.6-18.4c0.4-1.6,2-5.2,3.1-8.3c-2.7-4.9-1-10.8,1.2-15.3
	c1.7-3,4.1-6.1,6.9-8.4C180.9,88.1,181.2,88.2,181.4,88.5L181.4,88.5z M193,96.3c-0.9-0.1-1.2,1-1.9,1.2c-3.3,3.7-6.6,7.5-8.3,12
	c2.2,0.3,4.1-1.2,6.1-1.9c3.3-2.1,5.4-5.5,5.2-9.5C193.8,97.3,193.3,96.8,193,96.3L193,96.3z"/>
</svg>
