<?xml version="1.0" encoding="utf-8"?>
<!-- Generator: Adobe Illustrator 19.2.0, SVG Export Plug-In . SVG Version: 6.00 Build 0)  -->
<svg version="1.1" id="Capa_1" xmlns="http://www.w3.org/2000/svg" xmlns:xlink="http://www.w3.org/1999/xlink" x="0px" y="0px"
	 viewBox="0 0 200 200" style="enable-background:new 0 0 200 200;" xml:space="preserve">
<style type="text/css">
	.st0{fill-rule:evenodd;clip-rule:evenodd;}
</style>
<path class="st0" d="M75.9,70.4c-4.8,0-8.7,3.6-8.7,8.1v41c0,4.5,3.9,8.1,8.7,8.1c4.8,0,8.7-3.6,8.7-8.1v-41
	C84.5,74,80.7,70.4,75.9,70.4z M52.9,70.6H15.5c-4.8,0-8.7,3.6-8.7,8.1c0,4.5,3.9,8.1,8.7,8.1h37.4c4.8,0,8.7-3.6,8.7-8.1
	C61.5,74.2,57.7,70.6,52.9,70.6z M50.4,91.5H15.7c-4.8,0-8.7,3.6-8.7,8.1v19.9c0,4.5,3.9,8.1,8.7,8.1s8.7-3.6,8.7-8.1v-11.8l26,0
	c4.8,0,8.7-3.6,8.7-8.1C59.1,95.1,55.2,91.5,50.4,91.5z M191.6,107.4l-22.4-34.1c-1.5-2.2-4.2-3.7-7.3-3.7c-3.1,0-5.9,1.6-7.4,3.9
	L130.3,110h-22.4V78.7c0-4.5-3.9-8.1-8.7-8.1c-4.8,0-8.7,3.6-8.7,8.1v40.8c0,4.5,3.9,8.1,8.7,8.1h31.9c3.9,0,7.9-2,10.7-6.2l20-30
	l13.4,20l-18.8,0c-4.8,0-8.7,3.6-8.7,8.1c0,4.5,3.9,8.1,8.7,8.1l23.6,0.1c7.6,0,13.8-5.9,13.8-13C193.9,112,193.1,109.5,191.6,107.4
	z"/>
</svg>
