<?xml version="1.0" encoding="utf-8"?>
<!-- Generator: Adobe Illustrator 19.2.0, SVG Export Plug-In . SVG Version: 6.00 Build 0)  -->
<svg version="1.1" id="Capa_1" xmlns="http://www.w3.org/2000/svg" xmlns:xlink="http://www.w3.org/1999/xlink" x="0px" y="0px"
	 viewBox="0 0 200 200" style="enable-background:new 0 0 200 200;" xml:space="preserve">
<style type="text/css">
	.st0{fill:#231F20;}
</style>
<g>
	<path class="st0" d="M30.4,86.8c-0.1-0.5-0.6-0.8-1-0.8h-0.6c-0.4,0-0.8,0.3-1,0.6l-7.7,19l-7.7-18.9c-0.1-0.4-0.6-0.6-1-0.6h-0.6
		c-0.5,0-0.9,0.4-1,0.8L5,112.5c-0.1,0.4,0,0.7,0.2,0.9c0.2,0.2,0.5,0.3,0.8,0.3h2.5c0.5,0,0.9-0.4,1-0.8l2.6-16.2l6.6,16.7
		c0.1,0.4,0.5,0.7,1,0.7h0.7c0.6,0,0.9-0.4,1-0.6l6.5-16.7l2.7,16.1c0.1,0.4,0.5,0.8,1,0.8h2.5c0.4,0,0.7-0.1,0.8-0.4
		c0.1-0.2,0.3-0.5,0.2-0.9L30.4,86.8z"/>
	<path class="st0" d="M55.5,99.9c-2.8-1.2-4-2.3-4-3.8c0-0.9,0.7-2.6,3.4-2.6c0.8,0,2.1,0.3,4.2,1.5l0.2-0.4L59.1,95
		c0.6,0.4,1.2,0.2,1.6-0.4l0.8-1.2c0.2-0.3,0.3-0.6,0.2-0.9c-0.1-0.3-0.2-0.5-0.5-0.7c-0.7-0.5-3.1-2-6.3-2c-3,0-7.5,1.7-7.5,6.4
		c0,3.9,2.5,5.7,6.2,7.3c2.9,1.2,4.7,2.4,4.7,4.3c0,1.6-1.4,2.7-3.4,2.7c-2.3,0-4.6-1.8-5-2.2c-0.5-0.4-1.2-0.3-1.6,0.3
		c-0.1,0.2-0.3,0.5-0.5,0.7c-0.1,0.2-0.3,0.4-0.4,0.6c-0.5,0.8,0,1.2,0.3,1.5c0.7,0.6,3.2,2.7,7.3,2.7c4.4,0,7.6-2.8,7.6-6.5
		C62.7,103.2,59.2,101.4,55.5,99.9z"/>
	<path class="st0" d="M74.9,99.9c-2.8-1.2-4-2.3-4-3.8c0-0.9,0.7-2.6,3.4-2.6c0.8,0,2.1,0.3,4.2,1.6c0.6,0.4,1.2,0.2,1.6-0.4
		l0.8-1.2c0.2-0.3,0.3-0.6,0.2-0.9c-0.1-0.3-0.2-0.5-0.5-0.7c-0.7-0.5-3.1-2-6.3-2c-3,0-7.5,1.7-7.5,6.4c0,3.9,2.5,5.7,6.2,7.3
		c2.9,1.2,4.7,2.4,4.7,4.3c0,1.6-1.4,2.7-3.4,2.7c-2.3,0-4.6-1.8-5-2.2c-0.5-0.4-1.2-0.3-1.6,0.3c-0.1,0.2-0.3,0.5-0.4,0.7
		c-0.1,0.2-0.3,0.4-0.4,0.7c-0.5,0.8,0,1.2,0.3,1.4c0.5,0.4,3.1,2.7,7.3,2.7c4.4,0,7.6-2.8,7.6-6.5C82.1,103.2,78.5,101.4,74.9,99.9
		z"/>
	<path class="st0" d="M122.9,90.5c-0.1-0.1-0.3-0.6-1-0.6h-0.3c-0.4,0-0.8,0.2-1,0.6l-10.2,22.1c-0.2,0.3-0.1,0.7,0.1,1
		c0.2,0.3,0.5,0.5,0.9,0.5h2.9c0.6,0,1.1-0.3,1.4-0.9l1.5-3.3h9.2l1.5,3.3c0.2,0.5,0.6,0.9,1.3,0.9h2.9c0.4,0,0.7-0.2,0.9-0.5
		c0.2-0.3,0.2-0.7,0-1L122.9,90.5z M124.3,105.3h-5.2l2.6-5.8L124.3,105.3z"/>
	<path class="st0" d="M41.7,90.2h-2c-0.5,0-1,0.4-1,1v21.6c0,0.5,0.4,1,1,1h2c0.5,0,1-0.4,1-1V91.2C42.7,90.6,42.3,90.2,41.7,90.2z"
		/>
	<path class="st0" d="M109.7,107.3l-1.9-1.5c-0.3-0.2-0.7-0.4-1.2-0.3c-0.4,0.1-0.8,0.3-1,0.6c-0.4,0.6-0.8,1-1.3,1.4
		c-0.5,0.4-1,0.8-1.6,1c-0.6,0.3-1.1,0.5-1.7,0.6c-0.6,0.1-1.1,0.2-1.7,0.2c-1.4,0-2.7-0.2-3.8-0.7c-1.1-0.5-2.1-1.2-2.9-2
		c-0.8-0.8-1.4-1.9-1.8-3c-0.4-1.2-0.7-2.5-0.7-3.9c0-1.4,0.2-2.7,0.7-3.9c0.4-1.2,1-2.2,1.8-3c0.8-0.8,1.7-1.5,2.9-2
		c1.1-0.5,2.4-0.7,3.8-0.7c1.1,0,2.1,0.2,3.1,0.7c1,0.4,1.8,1.1,2.4,2.1c0.2,0.4,0.6,0.6,1,0.7c0.4,0.1,0.8-0.1,1.2-0.3l1.9-1.6
		c0.6-0.5,0.7-1.4,0.2-2.1c-1.3-1.6-2.8-2.8-4.5-3.5c-1.6-0.7-3.4-1-5.3-1c-2.1,0-4.1,0.4-5.8,1.1c-1.8,0.7-3.3,1.8-4.6,3.1
		c-1.3,1.3-2.3,2.9-3,4.7c-0.7,1.8-1.1,3.7-1.1,5.8c0,2.1,0.4,4.1,1.1,5.9c0.7,1.8,1.7,3.4,3,4.7c1.3,1.3,2.8,2.3,4.6,3.1
		c1.8,0.7,3.7,1.1,5.8,1.1c2.1,0,4-0.4,5.8-1.2c1.8-0.8,3.4-2.1,4.8-4C110.5,108.8,110.3,107.8,109.7,107.3z"/>
	<path class="st0" d="M176.7,92.8c-1.1-1.2-2.5-2.1-4-2.7c-1.6-0.6-3.3-1-5.1-1c-1.8,0-3.6,0.3-5.1,1c-1.6,0.6-2.9,1.6-4,2.7
		c-1.1,1.1-2,2.5-2.6,4.1c-0.6,1.6-0.9,3.3-0.9,5.1c0,1.8,0.3,3.6,0.9,5.1c0.6,1.6,1.5,2.9,2.6,4.1c1.1,1.2,2.5,2.1,4,2.7
		c1.5,0.6,3.3,1,5.1,1c1.8,0,3.6-0.3,5.1-1c1.6-0.6,2.9-1.5,4-2.7c1.1-1.1,2-2.5,2.6-4.1c0.6-1.6,0.9-3.3,0.9-5.1
		c0-1.8-0.3-3.6-0.9-5.1C178.6,95.3,177.8,93.9,176.7,92.8z M167.5,109.9c-1.2,0-2.3-0.2-3.2-0.6c-0.9-0.4-1.7-1-2.4-1.6
		c-0.7-0.7-1.2-1.6-1.5-2.5c-0.4-1-0.5-2.1-0.5-3.2c0-1.1,0.2-2.2,0.5-3.2c0.3-1,0.9-1.8,1.5-2.5c0.6-0.7,1.4-1.3,2.4-1.6
		c0.9-0.4,2-0.6,3.2-0.6c1.2,0,2.3,0.2,3.2,0.6c0.9,0.4,1.7,1,2.4,1.7c0.6,0.7,1.2,1.5,1.5,2.5c0.4,1,0.5,2.1,0.5,3.2
		c0,1.2-0.2,2.2-0.5,3.2c-0.4,1-0.9,1.8-1.5,2.5c-0.7,0.7-1.4,1.2-2.4,1.6C169.8,109.7,168.7,109.9,167.5,109.9z"/>
	<path class="st0" d="M193.5,109.4h-6.8V91.2c0-0.8-0.7-1.5-1.5-1.5h-2c-0.8,0-1.5,0.7-1.5,1.5v21.6c0,0.8,0.7,1.5,1.5,1.5h10.3
		c0.8,0,1.5-0.7,1.5-1.5v-1.8C195,110.1,194.3,109.4,193.5,109.4z"/>
	<path class="st0" d="M153.3,97.4c0-4.3-3.5-7.7-7.8-7.7h-9.7c-0.6,0-1.1,0.5-1.1,1.1v22.2c0,0.6,0.5,1.1,1.1,1.1h3.1
		c0.6,0,1.1-0.5,1.1-1.1v-8h3.1l4.4,8.5c0.2,0.3,0.5,0.6,0.9,0.6h3.6c0.4,0,0.8-0.2,1-0.5c0.2-0.3,0.2-0.8,0-1.1l-4.4-8
		C151.5,103.1,153.3,100.4,153.3,97.4z M148,97.4c0,1.6-1.3,3-2.9,3H140v-5.9h5.1C146.7,94.6,148,95.9,148,97.4z"/>
</g>
</svg>
