<?xml version="1.0" encoding="utf-8"?>
<!-- Generator: Adobe Illustrator 19.2.0, SVG Export Plug-In . SVG Version: 6.00 Build 0)  -->
<svg version="1.1" id="Capa_1" xmlns="http://www.w3.org/2000/svg" xmlns:xlink="http://www.w3.org/1999/xlink" x="0px" y="0px"
	 viewBox="0 0 200 200" style="enable-background:new 0 0 200 200;" xml:space="preserve">
<g>
	<path d="M5.2,150v-17.2h3.8v1.5c0.7-0.6,2.1-2.1,4.7-2.1c1.5,0,3.8,0.7,5.2,2.4c1.6,1.9,1.6,4.8,1.6,6.1v9.3h-4.1v-8.5
		c0-1.4,0-5.5-3.5-5.5c-0.8,0-2.1,0.4-2.8,1.5c-0.7,1.1-0.7,2.9-0.7,4.3v8.2H5.2 M25.8,139.9h9.5c-0.5-2.8-2.6-4-4.7-4
		C29.2,135.8,26.6,136.7,25.8,139.9 M26,143.2c0.2,1.1,1.8,3.5,4.8,3.5c1.8,0,3.2-0.8,4-2.2H39c-1,3.1-4.3,6-8.3,6
		c-5.1,0-9.1-4.1-9.1-9.1c0-4.9,3.8-9.4,9.1-9.4c5.5,0,8.9,4.7,8.9,9.1c0,0.8-0.1,1.5-0.2,2.1H26L26,143.2z M44.9,150h2.5l3.3-11.2
		h0.1L54,150h2.5l6.3-17.2h-4.4l-3.2,10.5h-0.1l-2.8-10.5h-3.3l-2.8,10.5h-0.1l-3.1-10.5h-4.4L44.9,150L44.9,150z M74.7,141.1
		c0,3.8,2.8,5.6,5.2,5.6c2.7,0,5-2.1,5-5.4c0-3.4-2.4-5.4-5-5.4C76.7,135.9,74.7,138.6,74.7,141.1 M70.9,127H75v7.3
		c1.4-1.4,3.4-2.2,5.4-2.2c5.3,0,8.7,4.6,8.7,9.1c0,3.5-2.3,9.3-8.6,9.3c-3.3,0-4.8-1.5-5.8-2.6v2.1h-3.8V127L70.9,127z
		 M104.4,141.3c0-3.6-2.6-5.4-5-5.4c-3.4,0-5.1,2.9-5.1,5.5c0,2.9,2.2,5.3,5.1,5.3C102.2,146.7,104.4,144.5,104.4,141.3 M108.3,150
		h-3.8v-2.1c-1.3,1.5-3.9,2.7-6,2.7c-4.4,0-8.4-3.5-8.4-9.3c0-5.3,3.9-9.1,8.6-9.1c3.5,0,5.6,2.5,5.7,2.8h0.1v-2.2h3.8V150
		L108.3,150z M114.7,127h-4.1v23h4.1V127L114.7,127z M130.2,141.3c0-3.6-2.6-5.4-5-5.4c-3.4,0-5.1,2.9-5.1,5.5
		c0,2.9,2.2,5.3,5.1,5.3C128,146.7,130.2,144.5,130.2,141.3 M134.1,150h-3.8v-2.1c-1.3,1.5-3.9,2.7-6,2.7c-4.4,0-8.4-3.5-8.4-9.3
		c0-5.3,3.9-9.1,8.6-9.1c3.5,0,5.6,2.5,5.7,2.8h0.1v-2.2h3.8V150L134.1,150z M136.3,150h4.1v-8.2c0-1.5,0-3.3,0.7-4.3
		c0.7-1.1,2.1-1.5,2.8-1.5c3.5,0,3.5,4.1,3.5,5.5v8.5h4.1v-9.3c0-1.3,0-4.2-1.6-6.1c-1.4-1.7-3.7-2.4-5.2-2.4c-2.6,0-4,1.4-4.7,2.1
		v-1.5h-3.8V150 M166.3,144.3c-1.1,1.7-2.5,2.4-3.8,2.4c-3.1,0-5.2-2.5-5.2-5.4c0-3.5,2.5-5.4,5-5.4c2.6,0,3.5,1.6,4,2.5h4.7
		c-1.8-5.3-6.5-6.3-8.7-6.3c-4.8,0-9.1,3.9-9.1,9.1c0,5.7,4.8,9.3,9.2,9.3c4,0,7.2-2.3,8.6-6.2H166.3 M175.8,139.9h9.5
		c-0.5-2.8-2.6-4-4.7-4C179.2,135.8,176.6,136.7,175.8,139.9 M176,143.2c0.2,1.1,1.8,3.5,4.8,3.5c1.8,0,3.2-0.8,4-2.2h4.4
		c-1,3.1-4.3,6-8.3,6c-5.1,0-9.1-4.1-9.1-9.1c0-4.9,3.8-9.4,9.1-9.4c5.5,0,8.9,4.7,8.9,9.1c0,0.8-0.1,1.5-0.2,2.1H176L176,143.2z
		 M100.7,72.9l20.1,1.3l-0.8,1.3L51.3,80l-3.1,5.3l63.8,4l-0.8,1.3l-35.5,2.1l2.7,10.1l25,1.5l-0.8,1.3l-23,1.6l2.2,8.5l44,0
		c10.6,0,29.6-7,31.8-21.7c1.2-8.3-6-11.5-8.9-11.8c13.7-3.8,18.3-13,19.3-16.7c3.3-12-5.2-16.1-16.6-16.1l-37.2,0l-4.7,8.2
		l20.1,1.4l-0.8,1.4l-21.7,1.4L100.7,72.9 M136.7,62.5l6.2,0c2.6,0,4.6,3.1,3.2,6.7c-1.6,3.9-6,5.9-10.3,5.9l-6.4,0L136.7,62.5
		L136.7,62.5z M129.4,87.8c2.2,0,5.4,2.3,3.7,6.8c-1.9,4.8-7.9,6.5-11.3,6.5h-7.3l7.6-13.3L129.4,87.8L129.4,87.8z M33.8,110.6
		l-3.1,5.3l31.6,0l4.4-7.6L33.8,110.6L33.8,110.6z M65.9,54.8l30.4,1.9l-1.9-7.2l-25.4,0L65.9,54.8L65.9,54.8z M60.1,64.8l-3.1,5.3
		l43.4,2.9l-2.8-10.5L60.1,64.8L60.1,64.8z M42.5,95.3l-3.1,5.3l30.6,1.7l5.5-9.5L42.5,95.3L42.5,95.3z M194.3,147.9
		c0-1.1-0.8-1.9-1.9-1.9c-1.1,0-1.9,0.8-1.9,1.9c0,1.1,0.8,2,1.9,2C193.5,149.8,194.3,149,194.3,147.9 M190,147.9
		c0-1.3,1.1-2.3,2.4-2.3c1.3,0,2.4,1,2.4,2.3c0,1.3-1.1,2.3-2.4,2.3C191.1,150.2,190,149.2,190,147.9 M191.9,147.7h0.5
		c0.5,0,0.7-0.2,0.7-0.4c0-0.3-0.1-0.4-0.6-0.4h-0.6V147.7L191.9,147.7z M191.9,149.2h-0.4v-2.7h1c0.6,0,1,0.2,1,0.8
		c0,0.5-0.3,0.7-0.7,0.7l0.8,1.2h-0.4l-0.7-1.2h-0.5V149.2L191.9,149.2z"/>
</g>
</svg>
