<?xml version="1.0" encoding="utf-8"?>
<!-- Generator: Adobe Illustrator 19.2.0, SVG Export Plug-In . SVG Version: 6.00 Build 0)  -->
<svg version="1.1" id="Capa_1" xmlns="http://www.w3.org/2000/svg" xmlns:xlink="http://www.w3.org/1999/xlink" x="0px" y="0px"
	 viewBox="0 0 200 200" style="enable-background:new 0 0 200 200;" xml:space="preserve">
<style type="text/css">
	.st0{fill-rule:evenodd;clip-rule:evenodd;fill:#1F1A17;}
</style>
<g>
	<path class="st0" d="M21.8,126c-0.1,1.3-1.1,2-2,2c-1,0-2-0.7-2-2.1v0v-19.4c0-1.3,1-2,2-2c1,0,2,0.7,2,2.1V126z M28.1,99.6h-8.3H7
		c-1.6,0-1.6,0-1.6,1.1v0v42.6c0,0,0,0-0.1,0v0v0c0,0.2,0.3,0.9,1.2,0.9c0.9,0,9.3,0,10.2,0c1,0,1,0,1-0.9v-8.6c0-1.2,0-1.4,1.1-1.4
		h0.9h8.3c4.9-0.2,6.1-1.4,6.1-6.9v-21.2C34.1,100.6,32.9,99.6,28.1,99.6L28.1,99.6z"/>
	<path class="st0" d="M67.4,100.6c0-1-0.2-0.7-1.1-1v0H56.2c-1.1,0-1.1,0-1.1,1v0l0,35.2c0,3.5-3.9,3.4-3.9,0v0v-35.2c0-1,0-1-1-1v0
		H39.6c-1.2,0-1.2,0-1.2,1v0v37.3c0,5.5,1.2,6.4,4.6,6.4v0h19.5c3.8,0,5.1-1,5-6.1v0V100.6z"/>
	<path class="st0" d="M111.5,99.6H76.6c-4.2,0-5.4,1-5.4,5.1v38.7c0,0.9,0,0.9,1.2,0.9v0h9.8c1.4,0,1.4,0,1.4-0.9v-36.4
		c0-3.2,3.9-3.5,3.9,0v36.4c0,0.9,0,0.9,1.5,0.9v0h9.7c1.1,0,1.1,0,1.1-0.9h0v-36.4c0-3,3.9-3.2,3.9,0h0v36.4c0,0.9,0,0.9,1.2,0.9
		l0,0h10c1.1,0,1.1,0,1.1-0.9h0v-38.9C116.1,100.6,114.9,99.6,111.5,99.6L111.5,99.6z"/>
	<path class="st0" d="M137.2,126c0,1.2-1,1.8-2,1.8c-1,0-2-0.6-2-1.8h0v-19.1c0-1.3,1-2,2-2c1,0,2,0.7,2,2h0V126z M145.3,99.6h-10.1
		h-9.7c-3.3,0-4.6,1-4.6,4.9v0v38.9c0,0.9,0,0.9,1.4,0.9l0,0h9.8c1.2,0,1.2,0,1.2-0.9h0v-8.7c0.1-1.4,1-2,2-2.1c1,0,2,0.7,2,2.2h0
		v8.6c0,0.9,0,0.9,1.2,0.9v0h10.1c1,0,1,0,1-0.9v-38.9C149.5,100.6,148.5,99.6,145.3,99.6L145.3,99.6z"/>
	<path class="st0" d="M164.6,143.1c-0.3,2.3-2.1,3.8-4.2,3.8c-0.6,0-1.1-0.1-1.7-0.3c-1.8-0.9-2.8-2.4-2.6-4.4
		c0.3-2.4,2.3-3.9,4.3-3.9c1.2,0,2.3,0.5,3.2,1.6C164.3,140.9,164.6,141.8,164.6,143.1L164.6,143.1z M160.4,137.3
		C160.3,137.3,160.3,137.3,160.4,137.3c-3,0-5.4,2.4-5.4,5.4c0,2.9,2.4,5.3,5.3,5.3c0,0,0.1,0,0.1,0c2.9,0,5.3-2.4,5.3-5.3
		C165.7,139.7,163.3,137.3,160.4,137.3z"/>
	<path class="st0" d="M160.1,142.6h-1.1l0-2.4h1.1c0.1,0,0.2,0,0.2,0c0.3,0,0.7,0.2,0.9,0.3c0.3,0.2,0.5,0.5,0.5,0.8
		c0,0.4-0.2,0.6-0.5,0.9c-0.2,0.2-0.5,0.3-0.9,0.4C160.3,142.6,160.2,142.6,160.1,142.6L160.1,142.6z M162.1,142.7
		c0.4-0.4,0.6-0.8,0.6-1.4c0-0.5-0.2-1-0.7-1.3c-0.4-0.3-1-0.5-1.6-0.6c-0.1,0-0.1,0-0.2,0l0,0H158l0,6.4h1.1l0-2.5h0.8l0.5,0.7
		l1.4,1.8h1l-2-2.5C161.2,143.3,161.7,143.1,162.1,142.7L162.1,142.7z"/>
	<path class="st0" d="M194,54.1c-0.9-1.5-2.9-1.1-5.4,0.1c-3.2,1.4-8.8,7.7-10.2,11.2c-1.2,5.1-4.1,9.7-8.8,14.7
		c-4.7,3.8-13.1,2.3-18-0.8c-0.3,0-20.2-15.5-20.2-15.5c-7.1-5.6-12.1-8.1-18.1-8.8c-0.3-0.2-0.6-0.5-0.7-0.7
		c-0.9-2.1-1.1-1.9-1.8-2.4c-0.8,0.6-1.4,0.9-2.1,1.2c-0.4,0-0.4,0-0.6-0.1c-0.5-0.2-1-0.6-1.5-0.7c-0.6,0.1-1.1,1.3-1.9,2.5
		c0,0-1.4,1.2-2.6,2.3c-0.5,0.4-0.5,1.1-0.9,1.5c-0.7,0.7-1.4,1.9-1.6,1.9c-0.3,0.8-0.4,1.6,0.1,2c0,0.9,0.5,1.2,0.7,1.4
		c0.2,0.3,0.2,0.4,0.4,0.6c0.4,0.2,0.7,0.2,1,0.3c1.9,1.8,2.7,1.7,4.9,1.4c3.8,0.3,3.5,1.6,3.4,3.5c-0.2,0.3-0.3,0.3-0.6,0.4
		c-1.7,0-3.5-0.4-5.2-0.4c-3.8,0.3-7,1-6.7,5.5c0.2,1.8,3.5,4.2,5.1,0.9c0.2-1.5,1.5-0.8,2.6-0.5c6.7,2.9,12.1,4.4,15.7,1.4
		c1.1-1.4,1.7-0.4,2.9,0.4c5.4,6.4,13.2,10.6,25.1,10.8c4,1,7,2.6,8.5,6.6c3.7,9.5,8.4,17.1,15.3,21.1c-0.6,6-0.3,10.9,5.7,12.2
		c1.6-1.3-0.6-3.2,1.2-7.6c-0.1-2-1.8-3.5-2.4-7.3c-7-5.8-4.1-8.1-5.1-12c-0.1-5.6-1.3-9.9-3.7-14.2c-0.3-0.7,0.2-1.2,0.8-1.6
		c4-3,6.1-5.9,7.1-8.7c1.5-5,4-9,7.5-11.8c3-2.4,5.9-3.2,9.1-5.3C195.2,56.5,194.9,55.6,194,54.1z"/>
</g>
</svg>
