<?xml version="1.0" encoding="utf-8"?>
<!-- Generator: Adobe Illustrator 19.2.0, SVG Export Plug-In . SVG Version: 6.00 Build 0)  -->
<svg version="1.1" id="Capa_1" xmlns="http://www.w3.org/2000/svg" xmlns:xlink="http://www.w3.org/1999/xlink" x="0px" y="0px"
	 viewBox="0 0 200 200" style="enable-background:new 0 0 200 200;" xml:space="preserve">
<style type="text/css">
	.st0{fill:#272525;}
</style>
<g>
	<path class="st0" d="M54.6,91.1c0,5.4-2,10-6.4,13.7c-3.3,2.7-7.5,4.1-11.8,4.1l-14.1,0c-1.7,0-3.1,1.4-3.1,3.1v11.4
		c0,1.7-1.4,3.1-3.1,3.1h-2.6c-1.7,0-3.1-1.4-3.1-3.1v-20.3c0-1.7,1.4-3.1,3.1-3.1h5.7h17.8c2.4,0,4.5-0.9,6.2-2.6
		c1.7-1.7,2.7-3.8,2.7-6.3c0-2.4-0.9-4.5-2.7-6.3c-1.7-1.7-3.8-2.6-6.2-2.6H21.1c-1.3,0-2.5-0.5-3.4-1.4l-7.5-7.5l26.5,0
		c4.5,0,9,1.6,12.3,4.8C52.7,81.8,54.6,86.1,54.6,91.1z"/>
	<path class="st0" d="M99.6,104.5c2,0,3.4,1.8,3.1,3.7c-0.7,4.5-2.8,8.5-6.2,12c-4.3,4.3-9.7,6.5-15.7,6.5s-11.3-2.1-15.6-6.5
		c-4.3-4.3-6.5-9.7-6.5-15.7V76.5c0-1.7,1.4-3.1,3.1-3.1h2.6c1.7,0,3.1,1.4,3.1,3.1v27.9c0,3.7,1.3,6.8,3.8,9.3
		c2.6,2.7,5.8,3.9,9.5,3.9c3.7,0,6.8-1.3,9.4-3.9c1.7-1.7,2.9-3.7,3.5-5.9c0.4-1.4,1.9-3.4,3.8-3.4
		C100.5,104.5,96.5,104.5,99.6,104.5z"/>
	<path class="st0" d="M111.9,104.5c-4.3,0-8-1.5-11-4.5c-3-3.1-4.5-6.7-4.5-11.1c0-4.3,1.5-7.9,4.5-10.9c3-3.1,6.7-4.6,11-4.6v8.9
		c-0.9,0-1.8,0.1-2.6,0.5c-0.9,0.3-1.5,0.8-2.2,1.5c-0.6,0.6-1.1,1.3-1.4,2.1c-0.3,0.8-0.5,1.7-0.5,2.5c0,1.9,0.6,3.4,1.9,4.7
		c1.3,1.3,2.9,2,4.8,2h13.3c4.3,0,8,1.5,11,4.5c3.1,3.1,4.6,6.7,4.6,11s-1.5,7.9-4.6,11c-3,3-6.7,4.5-11,4.5v-8.9
		c0.9,0,1.8-0.1,2.6-0.5c0.9-0.3,1.6-0.8,2.2-1.4c0.6-0.6,1.1-1.3,1.4-2.1c0.3-0.8,0.5-1.7,0.5-2.6c0-1.8-0.7-3.3-2-4.7
		c-1.3-1.3-2.9-2-4.7-2H111.9z"/>
	<path class="st0" d="M180.9,76.5v19h-26.6v-19c0-1.7-1.4-3.1-3.1-3.1h-2.6c-1.7,0-3.1,1.4-3.1,3.1v27.9v19c0,1.7,1.4,3.1,3.1,3.1
		h2.6c1.7,0,3.1-1.4,3.1-3.1v-19h26.6v19c0,1.7,1.4,3.1,3.1,3.1h2.6c1.7,0,3.1-1.4,3.1-3.1V95.5v-19c0-1.7-1.4-3.1-3.1-3.1H184
		C182.3,73.4,180.9,74.8,180.9,76.5z"/>
</g>
</svg>
