<?xml version="1.0" encoding="utf-8"?>
<!-- Generator: Adobe Illustrator 19.2.0, SVG Export Plug-In . SVG Version: 6.00 Build 0)  -->
<svg version="1.1" id="Capa_1" xmlns="http://www.w3.org/2000/svg" xmlns:xlink="http://www.w3.org/1999/xlink" x="0px" y="0px"
	 viewBox="0 0 200 200" style="enable-background:new 0 0 200 200;" xml:space="preserve">
<g>
	<g>
		<path d="M170.7,79.9h1.7c0.2,0.3,0.1,0.6,0.1,1c-0.3,4.4-0.6,8.9-0.8,13.3c-0.1,0.6,0,1.2-0.3,1.7c-2.4,4.1-4.8,8.2-7.1,12.4
			c-0.5,0.6-1.2,0.9-1.8,1.3c-3.2,2.2-6.4,4.3-9.7,6.5c-0.6,0.4-1.1,0.8-1.8,1.1c-0.3-0.5-0.7-1-0.8-1.5
			C157,103.7,163.9,91.9,170.7,79.9z"/>
		<path d="M174,79.9h1.9c1.1,2.2,2.5,4.3,3.7,6.4c3.8,6.5,7.5,13.1,11.3,19.6c1.9,3.2,3.7,6.4,5.6,9.6v0.3c-0.4,0.4-0.6,1-0.9,1.4
			c-4.1-2.8-8.2-5.5-12.4-8.3c-0.3-0.2-0.7-0.4-0.9-0.8c-2.4-4.2-4.8-8.3-7.2-12.5c-0.2-0.3-0.1-0.6-0.2-1
			C174.6,89.8,174.3,84.9,174,79.9z"/>
		<path d="M165.8,111.5c1.9-0.1,3.8,0,5.8-0.1c2.9,0,5.8,0,8.7,0c0.4,0,0.8,0.2,1.1,0.4c4.4,2.3,8.9,4.5,13.3,6.8
			c0,0.5-0.5,1-0.7,1.5h-41.3c-0.3-0.5-0.7-1-0.8-1.5c2.2-1.2,4.4-2.3,6.7-3.4C160.9,113.9,163.3,112.6,165.8,111.5z"/>
	</g>
	<g>
		<g>
			<path d="M3.6,90.1c3.9,0,7.7,0,11.6,0c1.7,0,3.4,0.1,5,0.4c2.1,0.4,4.2,1.4,5.5,3.2c1.5,1.9,1.8,4.5,1.5,6.9
				c-0.3,2.1-1.5,4.1-3.3,5.3c-1.9,1.3-4.2,1.6-6.5,1.4c3.3,3.6,6.5,7.3,9.8,10.9c0.3,0.4,0.6,0.7,0.9,1.1c-2.4,0-4.8,0-7.2,0
				c-3.4-3.8-6.8-7.6-10.3-11.4c-0.5-0.5-0.9-1-1.4-1.5c-0.1,4.3,0,8.5,0,12.8c-1.9,0.1-3.8,0-5.7,0.1V90.1z M9.3,95.2
				c0,2.7,0,5.3,0,8c2.5,0,4.9,0,7.4,0c1.3,0,2.6-0.2,3.7-0.8c0.8-0.4,1.3-1.3,1.5-2.2c0.2-1.2,0.1-2.5-0.8-3.5
				c-1.1-1.1-2.7-1.4-4.2-1.5C14.4,95.2,11.8,95.2,9.3,95.2z"/>
		</g>
		<g>
			<path d="M76.3,90.2c1.9-0.1,3.8,0,5.7,0c0,2.4,0,4.8,0,7.2c0.9-0.6,2-1.1,3.1-1.3c2.9-0.5,6.1,0,8.5,1.8c2.2,1.7,3.5,4.4,3.5,7.2
				c0,1.9,0,3.9,0,5.8c0,2.4-0.9,4.8-2.5,6.4c-1.8,1.8-4.4,2.7-6.9,2.8h-2.2c-2-0.2-4-0.9-5.7-2.1c-1.2,0.4-2.2,1.7-3.6,1.4
				C76.3,109.6,76.3,99.9,76.3,90.2z M85.2,101.1c-1.7,0.3-3.1,1.8-3.2,3.6c-0.1,2.1,0,4.1,0,6.2c0,1.5,0.9,3.1,2.3,3.7
				c1.6,0.7,3.5,0.7,5.1,0c1.3-0.6,2.1-2.1,2.2-3.5c0-1.9,0-3.9,0-5.8c0-1.4-0.6-2.8-1.8-3.5C88.4,100.9,86.8,100.7,85.2,101.1z"/>
		</g>
		<path d="M123.9,90.1c1.9,0,3.8,0,5.7,0c0,5.2,0,10.5,0,15.7c1.5-1.5,2.8-3.2,4.3-4.8c1.5-1.7,3-3.4,4.5-5.2c2.3,0,4.6,0,6.9,0
			c0,0.3-0.2,0.5-0.4,0.7c-3.2,3.6-6.4,7.3-9.6,10.9c2.7,3,5.4,6,8.1,9c0.8,1,1.8,1.9,2.6,2.9c-2.3,0-4.5,0-6.8,0
			c-0.4,0.1-0.6-0.4-0.9-0.7c-2.9-3.2-5.8-6.4-8.7-9.6c0,3.4,0,6.8,0,10.3c-1.9,0-3.8,0-5.7,0C123.9,109.6,123.9,99.9,123.9,90.1z"
			/>
		<g>
			<path d="M31.5,98.6c2-1.9,4.9-2.7,7.6-2.7c2.5-0.1,5.2,0.5,7.2,2.1c1.7,1.2,2.8,3.1,3.2,5.2c0.3,1.6,0.2,3.2,0.2,4.8
				c0,0.6,0.1,1.1-0.1,1.7c-5.1,0-10.1,0-15.2,0c-0.1,1.5,0.2,3.2,1.3,4.3c1,1,2.5,1.1,3.9,1.3c1.4,0,2.8-0.1,3.9-1
				c0.5-0.4,0.7-1,0.9-1.6c1.7-0.1,3.5-0.1,5.2,0c-0.2,1.8-0.8,3.7-2.2,5c-1.5,1.5-3.7,2.2-5.8,2.4c-1.5,0-2.9,0-4.4,0
				c-2.2-0.3-4.4-1.3-6-2.9c-1.7-1.7-2.5-4.1-2.5-6.4c0-1.9,0-3.9,0-5.8C28.9,102.5,29.8,100.2,31.5,98.6z M35.5,102
				c-0.9,0.9-1.1,2.2-1,3.4c3.2,0,6.5,0,9.7,0c0-1-0.1-2-0.6-2.9c-0.7-1.2-2.1-1.7-3.4-1.9C38.4,100.5,36.6,100.8,35.5,102z"/>
		</g>
		<g>
			<path d="M55.3,98.3c2.1-1.8,4.9-2.5,7.6-2.5c2.8,0,5.7,0.8,7.8,2.8c1.9,1.8,2.7,4.4,2.6,7c-0.1,1.3,0.1,2.7-0.1,4
				c-5-0.1-10.1,0-15.1,0c-0.2,1.4,0,3,1,4.1c1,1.2,2.7,1.4,4.2,1.5c1.5,0,3.3-0.2,4.3-1.5c0.3-0.3,0.2-0.9,0.5-1.2
				c1.7,0,3.4,0,5.1,0c-0.1,1.9-0.9,3.9-2.4,5.2c-1.5,1.4-3.6,2-5.6,2.2c-1.4-0.1-2.8-0.1-4.2,0c-2.7-0.3-5.4-1.7-7-4
				c-1-1.5-1.6-3.3-1.6-5.1c0-1.9,0-3.9,0-5.8C52.5,102.5,53.4,100,55.3,98.3z M59.1,102c-0.9,0.9-1.1,2.2-1,3.4c3.2,0,6.4,0,9.7,0
				c0-1.1-0.1-2.3-0.9-3.1c-0.8-1.1-2.2-1.5-3.5-1.6C61.9,100.6,60.2,100.8,59.1,102z"/>
		</g>
		<g>
			<path d="M108.3,96c2.9-0.4,6.1-0.1,8.7,1.5c1.9,1.2,3.2,3.1,3.7,5.2c0.4,1.7,0.3,3.5,0.3,5.2c0,1.7,0.1,3.4-0.3,5
				c-0.4,2.1-1.7,4.1-3.6,5.3c-1.4,0.9-3,1.4-4.6,1.6c-1.3,0-2.5,0-3.8,0c-2.6-0.2-5.3-1.4-6.9-3.6c-0.9-1.2-1.4-2.7-1.7-4.2
				c-0.2-1.3-0.1-2.6-0.1-3.9c0-2-0.2-4.1,0.4-6.1c0.6-2,1.9-3.7,3.7-4.8C105.4,96.6,106.8,96.2,108.3,96z M108.8,101.1
				c-0.9,0.3-1.8,0.7-2.3,1.5c-0.6,0.8-0.8,1.8-0.8,2.8c0,1.7,0,3.3,0,5c0,1.1,0.2,2.2,0.9,3c0.7,0.9,1.8,1.3,2.8,1.5
				c1.6,0.2,3.3,0,4.5-1.1c0.9-0.8,1.3-2.2,1.3-3.4c0-1.7,0-3.5,0-5.2c0-1.3-0.5-2.6-1.5-3.3C112.4,100.8,110.4,100.6,108.8,101.1z"
				/>
		</g>
	</g>
</g>
</svg>
