<?xml version="1.0" encoding="utf-8"?>
<!-- Generator: Adobe Illustrator 19.2.0, SVG Export Plug-In . SVG Version: 6.00 Build 0)  -->
<svg version="1.1" id="Capa_1" xmlns="http://www.w3.org/2000/svg" xmlns:xlink="http://www.w3.org/1999/xlink" x="0px" y="0px"
	 viewBox="0 0 200 200" style="enable-background:new 0 0 200 200;" xml:space="preserve">
<polygon points="41.9,117.1 41.9,108.8 29.5,108.8 19.5,108.8 7,108.8 7,117.1 19.5,117.1 19.5,150.7 29.5,150.7 29.5,117.1 
	41.9,117.1 "/>
<path d="M52.9,117.7c-8.2,0-14.7,7.6-14.7,16.9s6.3,16.9,14.7,16.9s14.7-7.6,14.7-16.9S61.1,117.7,52.9,117.7z M52.9,143.6
	c-3.5,0-6.2-4-6.2-9s2.7-9,6.2-9s6.2,4,6.2,9S56.4,143.6,52.9,143.6z"/>
<path d="M86.6,117.7c-5.3,0-9.9,1.3-14.2,5.3H72v39h9v-13.8c2,1.7,4.2,3.4,6.7,3.4c8.5-0.1,13.7-7.6,13.7-17S94.9,117.7,86.6,117.7z
	 M87.5,143.3c-2.6,0.6-4.5-0.8-6.5-1.9v-13.7c2-1.6,3.7-2.3,5.6-1.9c3.7,0.8,5.4,4.3,5.5,9C92.2,139.4,90.8,142.6,87.5,143.3z"/>
<path d="M119.9,117.7c-5.3,0-9.9,1.3-14.2,5.3h0.4v39h8v-13.8c2,1.7,4.3,3.4,6.8,3.4c8.5-0.1,13.8-7.6,13.8-17
	S128.1,117.7,119.9,117.7z M120.6,143.3c-2.6,0.6-4.6-0.8-6.6-1.9v-13.7c2-1.6,3.8-2.3,5.7-1.9c3.7,0.8,5.4,4.3,5.5,9
	C125.3,139.4,123.9,142.6,120.6,143.3z"/>
<path d="M172.1,150.7h8.4v-23.6c3-1.2,6.1-1.6,9.2-1.4c0.8-2.4,1.7-4.8,2.5-7.3c-7.5-1.2-14.1,0.1-20.1,3.6h0V150.7L172.1,150.7z"/>
<path d="M58.9,69.4c0,0.5,1.6,0.5,2.4,0.6c15.6,1.9,29.9,4.1,42.4,7.1c10.4,2.5,23,5.7,27.1,9.5c2.7,2.6,2.8,6.4,1.5,9.2
	c-1.1,2.3-3.8,5-3,6.1c0.6,0.8,5.5-2.9,8.3-4.3c9.2-4.4,17.7-9.2,27.3-13.3c9.7-4.1,27.1-8.4,27-19.2c-0.1-8.2-9.9-12.2-22.2-16
	c-5.3-1.6-13.6-5.8-18.9-8.4c-3-1.5-3.6-2.8-4.5-2.1c-0.3,0.2,0.4,5-1,6.8c-2.5,3.3-7.8,5.3-15.6,7.1c-10.3,2.5-24.8,4.7-41.7,6.5
	c-0.8,0.1-2.4,0.3-2.3,0.6c0.1,0.6,1.4,0.3,2.1,0.3c22-0.3,44-1.4,66.1-1.6c13.4-0.2,33.4,3.7,33.3,6.3c-0.1,2.9-20.2,7.6-35.3,7.8
	c-29.4,0.3-59.7-2-89.6-3.2C61.2,69.1,58.9,68.7,58.9,69.4L58.9,69.4z"/>
<path d="M159.6,140.7c-1.7,1.9-4.1,3-6.4,3c-2.8,0-5-2.8-5.8-5.8h20.3c0-10-4.1-20.2-14.5-20.2c-8.2,0-14.7,7.5-14.7,16.9
	s6.3,16.9,14.7,16.9c5.2,0,10.1-1.8,12.7-5.9L159.6,140.7L159.6,140.7z M153.3,125.4c2.6,0,4.8,2.6,5.7,5.6h-11.5
	C148.4,128,150.6,125.4,153.3,125.4z"/>
</svg>
