<?xml version="1.0" encoding="utf-8"?>
<!-- Generator: Adobe Illustrator 19.2.0, SVG Export Plug-In . SVG Version: 6.00 Build 0)  -->
<svg version="1.1" id="Capa_1" xmlns="http://www.w3.org/2000/svg" xmlns:xlink="http://www.w3.org/1999/xlink" x="0px" y="0px"
	 viewBox="0 0 200 200" style="enable-background:new 0 0 200 200;" xml:space="preserve">
<style type="text/css">
	.st0{fill:#231F20;}
</style>
<g>
	<path class="st0" d="M99.3,89.6L99.3,89.6c0.4,0.2,1,0.2,1.4,0l20.3-8.5c0.3-0.1,0.3-0.3,0-0.4l-20.3-8.5c-0.4-0.2-1.1-0.2-1.4,0
		l-20.3,8.5c-0.3,0.1-0.3,0.3,0,0.4L99.3,89.6z M142.8,78.9L142.8,78.9c0.8,0.3,1.3,1.1,1.3,2c0,0.9-0.5,1.6-1.3,2L101.6,100
		c-0.9,0.4-2.3,0.4-3.2,0L57.2,82.8c-0.8-0.3-1.3-1.1-1.3-2c0-0.9,0.5-1.6,1.3-2l41.2-17.2c0.9-0.4,2.3-0.4,3.2,0L142.8,78.9z
		 M189.4,76.7L189.4,76.7c1.6,0.7,2.7,2.3,2.7,4.1c0,1.8-1.1,3.4-2.7,4.1l-86.1,36c-1.8,0.8-4.8,0.8-6.7,0L10.6,85
		c-1.6-0.7-2.7-2.3-2.7-4.1c0-1.8,1.1-3.4,2.7-4.1l86.1-36c1.8-0.8,4.8-0.8,6.7,0L189.4,76.7z M97.5,51.2L28.4,80.1
		c-1,0.4-1,1.1,0,1.5l69.1,28.9c1.4,0.6,3.6,0.6,4.9,0l69.1-28.9c1-0.4,1-1.1,0-1.5l-69.1-28.9C101.1,50.6,98.9,50.6,97.5,51.2z"/>
	<path class="st0" d="M135.4,139.9L135.4,139.9l-0.1-4.4h-7.5v23.9h8.2v-10.1c0-4.7,2.2-7.5,6-7.5c1,0,1.9,0,2.8,0.3l0-6.9
		c-0.7-0.1-1.6-0.2-2.4-0.2C138.9,134.9,136.8,136.8,135.4,139.9"/>
	<path class="st0" d="M112.4,153.9L112.4,153.9c-2.9,0-5.3-2.7-5.3-6.4c0-3.7,2.1-6.5,5.3-6.5c3.4,0,5.2,2.9,5.2,6.2
		C117.6,151.1,115.6,153.9,112.4,153.9 M115.7,134.9c-3.3,0-6.1,1-8.2,3.6h-0.1V127h-8.3v32.3h7.6V155h0.1c1.1,2.7,4.4,4.8,8.2,4.8
		c7.1,0,10.9-5.9,10.9-12.9C125.9,141.2,122.2,134.9,115.7,134.9z"/>
	<path class="st0" d="M87.8,134.9c-3.4,0-6.5,1.4-8.5,4.6c-1.3-3.1-4.1-4.6-7.5-4.6c-3.8,0-7.1,1.5-8.7,4.9H63v-4.4h-7.5v23.9h8.2
		v-10.1c0-5.1,1.7-7.5,4.7-7.5c2.3,0,3.3,2,3.3,4.7v12.8H80v-10.1c0-5.1,1.7-7.5,4.7-7.5c2.3,0,3.3,2,3.3,4.7v12.8h8.2v-14.1
		C96.2,138.8,94.6,134.9,87.8,134.9"/>
	<path class="st0" d="M153.3,147.5L153.3,147.5c0-4.1,2.3-7.2,5.8-7.2c3.7,0,5.7,3.1,5.7,6.8c0,4.4-2.2,7.4-5.7,7.4
		C155.9,154.5,153.3,151.5,153.3,147.5 M159.1,134.9c-7.9,0-13.9,4.6-13.9,12.5c0,7.9,6,12.5,13.9,12.5c7.9,0,13.9-4.6,13.9-12.5
		C173,139.5,167,134.9,159.1,134.9z"/>
	<path class="st0" d="M27.8,135.5V149c0,7.6,5.4,10.9,12.3,10.9c7,0,12.3-3.3,12.3-10.9v-13.5h-8.2v12.8c0,2.9-0.7,5.6-4.1,5.6
		c-3.4,0-4.1-2.6-4.1-5.6v-12.8H27.8z"/>
</g>
</svg>
